<svg width="29" height="32" viewBox="0 0 29 32" fill="none" xmlns="http://www.w3.org/2000/svg">
<path d="M26.2932 19.8019V12.2005C26.5536 12.1382 26.8095 12.0387 27.0531 11.8987C28.4177 11.1061 28.8834 9.36559 28.099 8.001C27.3064 6.6364 25.5659 6.17064 24.2013 6.95508C23.9558 7.09766 23.74 7.2713 23.5547 7.46753L16.9733 3.66766C17.3859 2.29146 16.7064 0.800249 15.3524 0.22699C13.9001 -0.387834 12.2293 0.289057 11.6145 1.74132C11.3458 2.37597 11.3238 3.05234 11.5054 3.66409L4.92393 7.46402C4.04066 6.53332 2.60555 6.28281 1.44288 6.94658C0.0759614 7.72696 -0.406743 9.471 0.373635 10.8379C0.780088 11.5499 1.44813 12.0212 2.18798 12.1999V19.8032C0.866588 20.1255 -0.0719132 21.3521 0.0141533 22.7536C0.110633 24.3247 1.46296 25.5152 3.04132 25.4224C3.78765 25.3732 4.44735 25.0432 4.92498 24.5427L11.5054 28.342C11.1192 29.6444 11.7088 31.0718 12.967 31.6998C14.3781 32.4041 16.0915 31.8255 16.7922 30.4217C17.1434 29.718 17.1772 28.94 16.948 28.2495L23.49 24.4724C24.0178 25.0655 24.7875 25.4374 25.6422 25.4293C27.2161 25.4143 28.4878 24.1269 28.4729 22.553C28.4662 21.2141 27.5413 20.1013 26.2932 19.8019ZM5.6333 21.9003C5.50122 21.3588 5.21769 20.8816 4.83194 20.513L13.4469 5.59178C13.9806 5.74737 14.5306 5.73968 15.0372 5.59216L23.6514 20.5119C23.2619 20.8829 22.9769 21.3618 22.8461 21.9003H5.6333ZM23.1554 10.8528C23.5568 11.5511 24.211 12.0133 24.9367 12.1937V19.8062C24.8999 19.8153 24.8634 19.8251 24.8272 19.8356L16.2123 4.91467C16.2382 4.88989 16.2634 4.8643 16.2884 4.83847L22.8849 8.64706C22.6811 9.36304 22.7553 10.1567 23.1554 10.8528ZM12.2707 4.91622L3.65737 19.8346C3.61999 19.8237 3.58236 19.8134 3.5444 19.8041V12.196C3.79104 12.1344 4.03347 12.0393 4.26498 11.9072C5.43064 11.2417 5.94956 9.88069 5.59596 8.64226L12.189 4.83566C12.2155 4.86311 12.243 4.88977 12.2707 4.91622ZM16.349 27.2273C16.1185 26.9745 15.8389 26.7587 15.5141 26.5966C14.3692 26.0251 13.0277 26.2936 12.1861 27.1688L5.60249 23.3676C5.61315 23.3309 5.62326 23.294 5.63247 23.2567H22.8494C22.865 23.3199 22.8819 23.3826 22.9016 23.444L16.349 27.2273Z" fill="#78909C"/>
</svg>
