<svg width="28" height="28" viewBox="0 0 28 28" fill="none" xmlns="http://www.w3.org/2000/svg">
<path d="M20.174 12.2C19.2543 12.2447 18.3816 12.6197 17.716 13.256C17.4 13.5683 17.1526 13.943 16.9894 14.3562C16.8261 14.7694 16.7508 15.2121 16.768 15.656C16.7438 16.338 16.9149 17.0127 17.261 17.6009C17.6072 18.189 18.114 18.6661 18.722 18.976C19.2449 19.2695 19.786 19.5293 20.342 19.754C20.9902 19.9626 21.592 20.2947 22.114 20.732C22.2718 20.9089 22.3747 21.1279 22.4102 21.3623C22.4457 21.5966 22.4123 21.8363 22.314 22.052C22.2503 22.1665 22.1709 22.2716 22.078 22.364C21.8858 22.533 21.6622 22.6624 21.4199 22.7448C21.1776 22.8272 20.9214 22.8609 20.666 22.844C20.1809 22.8561 19.7013 22.7387 19.2767 22.5039C18.852 22.2691 18.4976 21.9253 18.25 21.508C18.2 21.4286 18.1424 21.3542 18.078 21.286C18.054 21.286 16.044 22.446 16.002 22.486C15.96 22.526 16.002 22.566 16.1 22.734C16.4926 23.3985 17.0375 23.9601 17.6899 24.3725C18.3423 24.785 19.0833 25.0364 19.852 25.106C20.4171 25.1654 20.9869 25.1654 21.552 25.106C22.4828 25.0213 23.3599 24.6326 24.048 24C24.3782 23.6768 24.6366 23.2876 24.8065 22.858C24.9764 22.4283 25.0539 21.9676 25.034 21.506C25.0503 20.9246 24.929 20.3476 24.68 19.822C24.5251 19.4934 24.3124 19.1953 24.052 18.942C23.2617 18.2305 22.3378 17.6832 21.334 17.332C20.7154 17.1329 20.1409 16.8164 19.642 16.4C19.5299 16.2821 19.4445 16.1413 19.3917 15.9874C19.3389 15.8334 19.3199 15.6699 19.336 15.508C19.3377 15.2614 19.4319 15.0244 19.6 14.844C19.7256 14.7069 19.8812 14.6009 20.0548 14.5342C20.2283 14.4676 20.415 14.4422 20.6 14.46C20.8186 14.4465 21.0374 14.4816 21.2408 14.5629C21.4442 14.6441 21.627 14.7695 21.776 14.93C21.904 15.0578 22.0193 15.1978 22.12 15.348C22.1525 15.4301 22.2098 15.5 22.284 15.548C22.352 15.518 24.272 14.278 24.272 14.26C24.272 14.242 24.174 14.096 24.056 13.916C23.7758 13.5072 23.4298 13.1476 23.032 12.852C22.4265 12.4541 21.724 12.2287 21 12.2C20.7255 12.17 20.4485 12.17 20.174 12.2ZM11.952 17V21.67L11.894 21.89C11.8472 22.1227 11.7347 22.3371 11.57 22.508C11.4373 22.6261 11.2815 22.7152 11.1124 22.7697C10.9433 22.8241 10.7647 22.8426 10.588 22.824C10.2479 22.8215 9.91667 22.7155 9.63835 22.52C9.36002 22.3246 9.14782 22.049 9.03 21.73C8.98634 21.6491 8.93476 21.5727 8.876 21.502L7.8 22.138L6.756 22.772L6.836 22.93C7.30165 23.8669 8.12031 24.5805 9.112 24.914C10.2089 25.2582 11.3888 25.2301 12.468 24.834C13.0509 24.592 13.5528 24.1891 13.9151 23.6724C14.2774 23.1556 14.4852 22.5464 14.514 21.916C14.53 21.768 14.54 20.116 14.54 17.012V12.33H11.962L11.952 17ZM24.964 28H3.036C2.23097 27.9995 1.45905 27.6794 0.889809 27.1102C0.320563 26.5409 0.000529803 25.769 0 24.964V3.036C0.000529803 2.23097 0.320563 1.45905 0.889809 0.889809C1.45905 0.320563 2.23097 0.000529803 3.036 0H24.964C25.769 0.000529803 26.5409 0.320563 27.1102 0.889809C27.6794 1.45905 27.9995 2.23097 28 3.036V24.964C27.9995 25.769 27.6794 26.5409 27.1102 27.1102C26.5409 27.6794 25.769 27.9995 24.964 28ZM3.036 1.41C2.60492 1.41053 2.19165 1.58201 1.88683 1.88683C1.58201 2.19165 1.41053 2.60492 1.41 3.036V24.964C1.41053 25.3951 1.58201 25.8084 1.88683 26.1132C2.19165 26.418 2.60492 26.5895 3.036 26.59H24.964C25.3951 26.5895 25.8084 26.418 26.1132 26.1132C26.418 25.8084 26.5895 25.3951 26.59 24.964V3.036C26.5895 2.60492 26.418 2.19165 26.1132 1.88683C25.8084 1.58201 25.3951 1.41053 24.964 1.41H3.036Z" fill="#78909C"/>
</svg>
