<svg width="24" height="32" viewBox="0 0 24 32" fill="none" xmlns="http://www.w3.org/2000/svg">
<path d="M7.42717 24.4895C6.73677 24.6708 5.49763 25.1271 5.83351 26.0611C6.47513 27.0756 7.8481 27.2235 8.93255 27.4429C11.6825 27.8281 14.5388 27.4156 17.0468 26.22C16.1853 25.9492 15.3782 25.4377 14.5833 25.1251C12.268 25.5972 9.79735 25.7958 7.49338 25.1781C7.61126 24.903 8.6673 24.271 7.78589 24.4631C7.66632 24.4718 7.54674 24.4806 7.42717 24.4895ZM6.68529 21.1291C5.99511 21.4069 4.76627 21.738 4.88412 22.7007C5.31079 23.6644 6.59371 23.7526 7.49588 23.9631C10.924 24.4609 14.4397 24.0228 17.7308 22.9965C17.0045 22.7245 16.2289 22.4679 15.6912 21.8796C12.7746 22.4577 9.69437 22.7484 6.77791 22.1312C6.36765 21.9151 7.19804 21.5112 7.24409 21.2928C8.06752 20.5879 6.95691 21.1897 6.68529 21.1291ZM18.2829 7.00307C15.8538 7.73613 13.2223 8.74018 11.7805 10.9401C10.7536 12.541 11.4989 14.5963 12.7031 15.8713C13.5377 16.6923 13.2086 18.0394 12.3544 18.71C11.4591 19.4919 12.4928 19.3548 13.0121 18.9793C14.2817 18.1954 15.6998 16.7633 15.1577 15.1296C14.731 13.8959 13.1297 12.8736 13.6954 11.4319C14.7943 9.44894 17.0835 8.57664 18.8078 7.23044C19.4711 6.78761 18.5396 7.06324 18.2829 7.00307ZM2.5307 28.2238C3.59124 27.5189 4.89795 27.336 6.15071 27.5087C5.56377 27.0832 5.02705 26.6019 4.25266 26.7096C2.79777 26.8515 1.23968 27.232 0.178177 28.2988C-0.348118 28.918 0.398497 29.6253 1.03021 29.6983C6.41233 30.7114 12.0203 30.8601 17.4258 29.9146C18.8371 29.5473 20.524 29.3856 21.5447 28.2459C22.0208 27.4387 20.9011 26.8476 20.2448 26.7966C19.9737 26.8644 20.7264 27.345 20.7059 27.6985C20.045 28.4281 18.8751 28.4077 17.9512 28.6388C11.0937 29.5312 4.32014 29.1747 2.5307 28.2238ZM17.2191 19.7436C17.7421 19.4609 18.2956 19.2389 18.7289 18.8165C17.0318 18.715 15.3719 19.2734 13.6835 19.3331C10.9414 19.5014 8.1319 19.8147 5.41421 19.2933C4.99392 19.1961 5.75601 18.9769 5.8645 18.8916C6.842 18.4571 7.9219 18.3601 8.86202 17.8321C8.4722 17.7434 8.09419 17.5785 7.68765 17.629C5.92642 17.7272 4.11245 18.1601 2.64164 19.1432C2.12129 19.6356 2.7694 20.2743 3.30826 20.3396C7.04701 21.3748 15.5312 20.8542 17.2191 19.7436ZM20.0355 17.3377C19.1437 17.334 18.2872 17.7606 17.925 18.6173C17.5072 19.1839 18.6249 18.3578 18.9981 18.3663C20.1888 17.8722 21.631 19.1676 21.0642 20.3883C20.4787 21.8714 18.8917 22.5832 17.7002 23.4344C16.7091 24.2464 17.0256 24.2841 18.0835 23.8997C19.9988 23.3395 22.2943 22.4426 22.9227 20.3573C23.3756 18.6407 21.7067 17.1784 20.0355 17.3377ZM14.0447 0C14.1212 0.353174 14.1977 0.706604 14.2742 1.05978C15.6042 6.33333 8.97917 7.54167 7.39613 11.2801C6.74463 13.1908 8.25437 14.9344 9.46206 16.2389C10.293 17.0812 11.1368 17.9363 12.1066 18.6348C11.6642 16.3927 9.16722 14.9479 9.39158 12.5377C9.83708 10.2228 12.2641 9.20679 13.6563 7.53589C15.9688 4.96875 16.4815 2.28432 14.0447 0ZM3.38741 30.4484C4.77108 31.7891 6.83485 31.6986 8.61447 31.9097C12.6769 32.0851 16.8493 32.122 20.7549 30.8987C21.8691 30.5364 23.2922 29.6598 22.9802 28.2724C23.0726 27.4421 22.653 28.5347 22.4765 28.6781C20.0633 31.0703 9.31331 31.3987 3.38741 30.4484Z" fill="#78909C"/>
</svg>
