<svg width="32" height="29" viewBox="0 0 32 29" fill="none" xmlns="http://www.w3.org/2000/svg">
<path d="M18.7939 14.1283C18.7939 11.9381 16.4223 10.5618 14.5352 11.6569C12.6482 12.752 12.6482 15.5046 14.5352 16.5998C16.4223 17.6949 18.7939 16.3185 18.7939 14.1283ZM25.2946 8.86769C27.1734 -0.112958 23.04 -2.93115 16.0133 3.56948C9.39993 -2.63055 4.69042 -0.676597 6.69447 8.83011C-2.54687 11.6161 -1.93458 16.8605 6.76962 19.5393C4.77809 28.2944 8.49811 31.4884 16.0133 24.875C23.303 31.4132 27.1719 28.352 25.1818 19.5017C34.676 16.2827 33.8243 11.6233 25.2946 8.86769ZM24.017 8.52951C22.5275 8.19354 21.0864 7.94899 19.6206 7.81556C18.8483 6.68634 17.9488 5.55835 16.9151 4.50888C22.5487 -0.894892 25.869 0.79358 24.017 8.52951ZM9.47509 15.8568C10.0325 17.0467 10.7652 18.1364 11.3163 19.0508C10.4189 18.959 9.4521 18.8196 8.42296 18.6374C8.75272 17.7144 9.10381 16.7874 9.47509 15.8568ZM9.39993 12.6253C8.98997 11.6412 8.61586 10.6914 8.31023 9.80709C9.37265 9.58687 10.4137 9.38692 11.3163 9.3186C10.6446 10.3739 10.0065 11.4771 9.39993 12.6253ZM10.189 14.2786C11.1079 12.4384 12.0799 10.6916 13.1575 9.13072C15.0697 9.02076 16.9614 9.0305 18.8315 9.1683C19.8803 10.6297 20.8592 12.3764 21.8 14.2786C21.096 15.7334 20.0963 17.4101 18.9442 19.2011C17.0207 19.3467 15.0482 19.3266 13.0448 19.2011C12.0294 17.6454 11.0758 16.0069 10.189 14.2786ZM22.5139 15.8568C22.8788 16.7422 23.216 17.6446 23.5285 18.5623C22.5641 18.7654 21.6127 18.9133 20.6727 19.0132C21.3161 18.0163 21.9265 16.9579 22.5139 15.8568ZM20.6727 9.3186C21.6973 9.45886 22.687 9.634 23.6412 9.84466C23.322 10.7933 22.9593 11.7204 22.5515 12.6253C21.9699 11.4781 21.3454 10.3741 20.6727 9.3186ZM17.7794 7.66526C16.6091 7.61935 15.4185 7.62082 14.2097 7.66526C14.7389 6.96922 15.3288 6.24215 15.9757 5.48586C16.6062 6.16642 17.2036 6.89893 17.7794 7.66526ZM15.0739 4.50888C14.0402 5.55835 13.1407 6.64877 12.3684 7.77799C10.9027 7.91141 9.4239 8.15597 7.93447 8.49193C6.1684 0.638561 9.44029 -0.894892 15.0739 4.50888ZM7.1078 18.2992C-0.720519 15.9445 -0.344759 12.2746 7.03265 10.1077C7.48394 11.4771 8.03027 12.8679 8.64842 14.2035C8.04777 15.5847 7.51602 17.0033 7.1078 18.2992ZM8.08478 19.8774C9.41246 20.2031 10.8194 20.3594 12.2933 20.5162C13.1801 21.7677 14.0984 22.9313 15.0739 23.9356C9.33731 29.4342 6.13935 27.4365 8.08478 19.8774ZM15.9757 22.9962C15.2959 22.2923 14.6613 21.4947 14.0594 20.629C15.401 20.6572 16.6969 20.6604 17.9297 20.629C17.3326 21.476 16.6806 22.2643 15.9757 22.9962ZM16.9151 23.9356C17.9618 22.7984 18.8845 21.6456 19.6957 20.4787C21.0804 20.3768 22.4832 20.164 23.9042 19.8399C25.8673 27.8857 22.303 29.0738 16.9151 23.9356ZM24.8436 18.2241C24.4411 16.9282 23.9328 15.5847 23.3406 14.2035C23.9501 12.8679 24.4738 11.5147 24.9188 10.1453C32.1209 12.3247 32.697 15.8067 24.8436 18.2241Z" fill="#78909C"/>
</svg>
