<svg width="32" height="32" viewBox="0 0 32 32" fill="none" xmlns="http://www.w3.org/2000/svg">
<g clip-path="url(#clip0_83_121)">
<path d="M4.65621 27.2367C-9.42467 11.9611 11.4259 -9.76953 27.4579 4.87145C27.6881 4.78279 28.4661 3.41519 29.1688 2.08543C31.4382 8.69186 32.5294 14.0892 31.7495 18.5002C29.3849 31.8743 14.5037 35.4443 6.12411 28.5496C7.05916 28.4842 7.46339 28.0358 7.65893 27.5583C7.93251 26.8901 7.65931 26.185 7.32304 25.8963C6.24727 24.9725 5.03362 25.6169 4.76216 26.5923C4.70563 26.7954 4.72089 27.1907 4.65621 27.2367ZM29.0074 3.56885C26.8491 7.352 22.3094 10.7384 15.7702 10.9169C11.5796 11.0314 8.90288 11.8401 6.79567 14.2066C3.79216 17.5797 4.20762 22.4918 6.78558 24.4331C7.05059 24.6327 7.40903 24.8514 7.7147 24.8712C16.812 23.1877 22.9071 20.8852 27.2745 13.0937C25.7906 17.9915 22.3533 21.0235 19.6227 23.0115C17.1559 24.8074 11.3059 26.0884 9.46876 26.9532C9.40079 27.0452 9.48882 27.077 9.68629 27.0518C13.5093 26.5639 17.266 27.3468 21.483 26.9202C30.9342 25.9641 34.1302 17.7316 29.0074 3.56885Z" fill="#78909C"/>
</g>
<defs>
<clipPath id="clip0_83_121">
<rect width="32" height="32" fill="white"/>
</clipPath>
</defs>
</svg>
