<svg width="32" height="32" viewBox="0 0 32 32" fill="none" xmlns="http://www.w3.org/2000/svg">
<g clip-path="url(#clip0_83_123)">
<path d="M9.32578 17.0755C9.02106 17.5832 8.57217 17.9938 8.33649 18.5933C7.84418 19.6551 8.03467 21.9538 7.72412 21.9577C7.36159 22.1315 6.79024 21.0876 6.54659 20.4654C5.92981 18.8916 5.81522 16.3574 6.35792 14.546C7.10938 12.1562 7.15625 12.2812 6.12246 11.1561C5.16662 9.76102 4.71179 7.498 4.09688 5.89456C3.1543 3.79761 0.932287 2.03532 2.11852 1.24032C2.54526 0.882657 3.97845 1.59163 5.04402 2.29425C5.79674 2.79057 6.28905 3.31742 6.45215 3.31462C8.25 3.26563 8.95312 3.34375 11.8693 5.08537C14.5845 6.92657 16.8044 9.54763 18.3229 12.6742C18.7001 13.984 20.5208 18.25 21.7615 20.4149C22.082 20.8744 23.3191 21.121 23.8813 21.3761C25.2236 21.8269 25.4844 22.0469 27.3673 23.501C27.7016 23.7539 28.7293 24.3084 28.7805 24.7655C27.1239 24.7172 25.8586 24.8824 24.7768 25.3724C24.4693 25.5117 23.9791 25.5153 23.9289 25.9291C24.1953 26.2188 23.9531 26.6406 25.3419 28.0034C26.7549 29.2708 27.4375 29.375 29.1576 30.3813C30.8059 31.5234 30.8274 31.8781 31.183 32V31.9495C30.8329 31.1235 30.8533 31.2411 30.2409 30.5834C28.0208 27.6042 26.3911 27.8085 25.7188 26.3844C27.523 25.69 28.4583 25.9375 30.1469 25.3219V25.1195C29.0012 23.3022 25.7292 20.6042 22.794 19.6439C20.9177 16.0648 20.1323 13.5193 19.1708 11.46C17.1499 7.7953 11.8125 1.75 6.9703 2.15096C6.65404 2.00896 6.32498 1.59334 6.02823 1.39207C4.84671 0.590429 1.81611 -1.15325 0.940994 1.13918C0.38843 2.58618 1.7668 3.99825 2.25976 4.73121C2.60582 5.2456 3.04884 5.82228 3.29605 6.40072C3.53807 7.02762 3.46875 7.49219 4.70926 10.5493C5.62631 12.5323 5.79745 11.9504 5.98101 12.6742C5.69015 13.1113 5.67357 13.7899 5.51009 14.3437C4.1875 18.75 6.26241 23.9568 8.28927 23.0962C9.32789 22.6442 8.9787 20.8956 9.40462 19.7297C10.0104 20.8646 10.1979 22.3333 12.9528 24.5635C13.4422 24.9604 13.9667 25.683 14.592 25.9111C13.9446 25.4623 13.3884 24.7858 12.8586 24.0575C12.0002 22.8059 11.2416 21.436 10.5505 20.0099C9.41812 17.7523 9.65928 17.3242 9.32578 17.0755ZM7.75857 6.74795C7.4375 5.98958 7.3143 6.16387 6.97429 5.78994C6.63289 5.78319 6.38444 5.83797 6.12912 5.8978C6.1151 5.90679 6.1186 5.92517 6.13021 5.94792C6.29303 6.30728 6.62608 6.53845 6.82748 6.84802L7.29313 7.89787C7.63884 7.65011 7.76197 7.24403 7.75857 6.74795Z" fill="#78909C"/>
</g>
<defs>
<clipPath id="clip0_83_123">
<rect width="32" height="32" fill="white"/>
</clipPath>
</defs>
</svg>
