<svg width="32" height="32" viewBox="0 0 32 32" fill="none" xmlns="http://www.w3.org/2000/svg">
<path d="M16.3092 2.14577C13.4997 5.12663 10.8912 10.6483 10.08 14.8656C10.4681 15.6314 10.8586 17.0423 11.0243 17.8834C10.8537 17.1619 10.3894 16.3818 9.87164 15.4684L9.37114 17.0353C10.0159 18.2138 10.4079 20.2344 10.4079 20.2344C10.2346 19.4976 9.76238 18.7198 9.18252 17.6948C8.89282 18.7661 8.77694 19.4885 8.88172 19.6648C9.5545 21.041 10.0373 23.9083 10.1145 24.7969C10.0308 27.4236 10.2338 30.157 10.8554 32L11.0613 31.8878C8.68756 23.3471 14.0605 8.07181 21.1245 2.27891C17.1842 6.22878 12.4013 17.0467 11.2203 24.4628C12.1091 21.7482 14.9803 20.5808 14.9803 20.5808C14.9803 20.5808 16.3893 18.8438 18.0351 16.3622C16.3433 16.7332 15.0523 17.0683 13.872 17.6504C13.872 17.6504 16.4633 16.0725 18.686 15.3575C21.7433 10.5422 25.0743 3.70031 21.7199 0.707114C20.1495 -0.750089 18.0901 0.199879 16.3092 2.14577Z" fill="#78909C"/>
</svg>
