<svg width="27" height="27" viewBox="0 0 27 27" fill="none" xmlns="http://www.w3.org/2000/svg">
<path fill-rule="evenodd" clip-rule="evenodd" d="M0 0V26.112H26.112V0H0ZM19.8413 12.6829V12.6833C20.0917 12.684 20.3762 12.6969 20.5903 12.7201C21.4619 12.8144 22.1407 13.1905 22.7181 13.8988C23.0057 14.2516 23.1041 14.406 23.0831 14.472C23.0696 14.5146 22.8723 14.6559 22.245 15.0724C21.6288 15.4815 21.4302 15.604 21.3841 15.604C21.3374 15.604 21.24 15.5038 21.0996 15.3114C20.8293 14.9409 20.5532 14.7718 20.1265 14.7154C19.6676 14.6546 19.256 14.7992 19.0544 15.0923C18.8821 15.3426 18.8561 15.7454 18.993 16.0381C19.1517 16.3772 19.4389 16.5646 20.5396 17.0473C21.8091 17.6039 22.4525 17.9849 22.921 18.4578C23.4256 18.967 23.6812 19.5549 23.7597 20.3865C23.7981 20.7918 23.7512 21.2723 23.6352 21.6629C23.3508 22.6204 22.5831 23.3215 21.458 23.6515C21.1469 23.7427 20.8575 23.7971 20.5712 23.8181C20.1342 23.8503 19.5086 23.8326 19.1321 23.7777C18.1796 23.639 17.1042 23.0847 16.568 22.4561C16.3048 22.1476 15.9688 21.6399 15.9688 21.5505C15.9688 21.5074 15.9901 21.483 16.0748 21.4292C16.3257 21.2697 17.764 20.4475 17.7919 20.4475C17.8088 20.4475 17.8839 20.5361 17.9588 20.6443C18.1284 20.8893 18.5457 21.3103 18.7577 21.4508C18.931 21.5655 19.1526 21.6577 19.4156 21.7242C19.5663 21.7617 19.646 21.7684 19.9747 21.7684C20.3106 21.7683 20.3795 21.7627 20.5297 21.7223C20.9271 21.6153 21.2374 21.394 21.3688 21.1237C21.4265 21.0069 21.4276 20.9923 21.4276 20.7089V20.4152L21.357 20.2751C21.1859 19.9354 20.8172 19.7024 19.6517 19.1976C19.1163 18.9656 18.4606 18.6386 18.2046 18.476C17.6204 18.1047 17.2155 17.6802 16.9497 17.1607C16.6854 16.644 16.646 16.4517 16.6454 15.6748C16.6447 15.0666 16.6437 15.0741 16.7696 14.6859C16.8838 14.3337 17.1177 13.9402 17.3759 13.6658C17.8911 13.1181 18.6439 12.7661 19.4498 12.6961C19.5529 12.6864 19.691 12.6825 19.8412 12.683L19.8413 12.6829ZM12.9062 12.803H12.9065C14.4587 12.8038 15.3485 12.8092 15.3627 12.8181C15.3896 12.8348 15.393 12.9699 15.393 13.832V14.8266L13.8441 14.8323L12.2953 14.8379V19.2355C12.2953 21.6543 12.2904 23.6476 12.2836 23.6652C12.2727 23.6948 12.1536 23.697 11.1458 23.697H10.0202L10.0085 23.6515C10.001 23.6266 9.99553 21.6332 9.99541 19.2219L9.99503 14.8376L8.44617 14.8321L6.8973 14.8265V13.8437C6.8973 13.0642 6.90269 12.8554 6.92343 12.8347C6.94474 12.8127 7.7352 12.807 11.1412 12.8037C11.7979 12.803 12.3888 12.8027 12.9062 12.803Z" fill="#78909C"/>
</svg>
