<svg width="40" height="40" viewBox="0 0 40 40" fill="none" xmlns="http://www.w3.org/2000/svg">
<path d="M6.79016 13.2143C8.72878 10.4102 9.69809 9.00818 11.0883 8.25409C12.4786 7.5 14.0941 7.5 17.3251 7.5H25.1441C29.7678 7.5 32.0797 7.5 33.7404 8.70379C34.4594 9.22492 35.0767 9.89457 35.557 10.6745C36.6667 12.4761 36.6667 14.9841 36.6667 20C36.6667 25.0159 36.6667 27.5239 35.557 29.3255C35.0767 30.1054 34.4594 30.7751 33.7404 31.2962C32.0797 32.5 29.7678 32.5 25.1441 32.5H17.3251C14.0941 32.5 12.4786 32.5 11.0883 31.7459C9.69809 30.9918 8.72878 29.5898 6.79016 26.7857L6.54325 26.4286C4.40333 23.3333 3.33337 21.7857 3.33337 20C3.33337 18.2143 4.40333 16.6667 6.54325 13.5714L6.79016 13.2143Z" stroke="#3B82F6" stroke-width="1.5"/>
<path d="M14.9997 20H15.0146" stroke="#3B82F6" stroke-width="2" stroke-linecap="round" stroke-linejoin="round"/>
<path d="M21.6663 20H21.6813" stroke="#3B82F6" stroke-width="2" stroke-linecap="round" stroke-linejoin="round"/>
<path d="M28.3331 20H28.348" stroke="#3B82F6" stroke-width="2" stroke-linecap="round" stroke-linejoin="round"/>
</svg>
