<svg width="40" height="40" viewBox="0 0 40 40" fill="none" xmlns="http://www.w3.org/2000/svg">
<path d="M22.5681 3.33337H17.4322C10.5259 3.33337 7.07273 3.33337 5.02299 5.48397C2.97326 7.63458 3.18866 11.0317 3.61946 17.8258L3.9191 22.5514C4.01811 24.1128 4.06761 24.8935 4.24288 25.5447C4.91974 28.0594 6.98904 29.9756 9.57757 30.4846C10.2479 30.6164 11.0415 30.6164 12.6286 30.6164C13.0484 30.6164 13.2583 30.6164 13.4326 30.6521C14.1069 30.7904 14.6338 31.3097 14.774 31.9744C14.8103 32.1461 14.8103 32.353 14.8103 32.7668V34.251C14.8103 35.6535 14.8103 36.3548 15.2671 36.5958C15.7239 36.8368 16.3159 36.4478 17.4998 35.6698L24.5461 31.0396C24.7523 30.904 24.8555 30.8363 24.9651 30.7844C25.1251 30.7087 25.296 30.6577 25.4717 30.6332C25.5922 30.6164 25.7161 30.6164 25.964 30.6164C28.874 30.6164 30.3289 30.6164 31.5081 30.1786C33.2312 29.5389 34.6247 28.2486 35.38 26.5933C35.8968 25.4606 35.9875 24.0292 36.169 21.1666L36.3809 17.8258C36.8117 11.0317 37.0271 7.63458 34.9773 5.48397C32.9276 3.33337 29.4744 3.33337 22.5681 3.33337Z" stroke="#3B82F6" stroke-width="1.5" stroke-linejoin="round"/>
<path d="M26.6667 13.3334L28.7109 15.0954C29.5703 15.8361 30 16.2065 30 16.6667C30 17.1269 29.5703 17.4973 28.7109 18.2381L26.6667 20" stroke="#3B82F6" stroke-width="1.5" stroke-linecap="round" stroke-linejoin="round"/>
<path d="M13.3333 13.3334L11.2891 15.0954C10.4297 15.8361 10 16.2065 10 16.6667C10 17.1269 10.4297 17.4973 11.2891 18.2381L13.3333 20" stroke="#3B82F6" stroke-width="1.5" stroke-linecap="round" stroke-linejoin="round"/>
<path d="M21.6668 11.6666L18.3335 21.6666" stroke="#3B82F6" stroke-width="1.5" stroke-linecap="round" stroke-linejoin="round"/>
</svg>
