<svg width="32" height="36" viewBox="0 0 32 36" fill="none" xmlns="http://www.w3.org/2000/svg">
<path d="M26 24.6665L29.0664 27.3095C30.3554 28.4206 31 28.9761 31 29.6665C31 30.3569 30.3555 30.9124 29.0664 32.0235L26 34.6665" stroke="#3B82F6" stroke-width="1.5" stroke-linecap="round" stroke-linejoin="round"/>
<path d="M19.3334 24.6665L16.267 27.3095C14.9779 28.4206 14.3334 28.9761 14.3334 29.6665C14.3334 30.3569 14.9779 30.9124 16.267 32.0235L19.3334 34.6665" stroke="#3B82F6" stroke-width="1.5" stroke-linecap="round" stroke-linejoin="round"/>
<path d="M29.3334 19.6719L29.3334 11.033C29.3334 8.2101 29.3334 6.79865 28.8868 5.67136C28.1688 3.85908 26.6504 2.42958 24.7254 1.75363C23.528 1.33318 22.0288 1.33318 19.0303 1.33318C13.7831 1.33318 11.1594 1.33318 9.06398 2.06898C5.69527 3.25188 3.03806 5.75351 1.7816 8.92499C1.00004 10.8978 1.00004 13.3678 1.00004 18.3079L1.00004 22.5515C1.00004 27.6687 1.00004 30.2272 2.41287 32.004C2.81767 32.5131 3.29774 32.9651 3.83849 33.3462C5.35847 34.4174 7.41703 34.6259 11 34.6665" stroke="#3B82F6" stroke-width="1.5" stroke-linecap="round" stroke-linejoin="round"/>
<path d="M0.99996 18C0.99996 14.9317 3.48727 12.4444 6.55552 12.4444C7.66516 12.4444 8.97335 12.6389 10.0522 12.3498C11.0108 12.0929 11.7596 11.3442 12.0164 10.3856C12.3055 9.30673 12.1111 7.99853 12.1111 6.88889C12.1111 3.82064 14.5984 1.33333 17.6666 1.33333" stroke="#3B82F6" stroke-width="1.5" stroke-linecap="round" stroke-linejoin="round"/>
</svg>
