<svg width="40" height="40" viewBox="0 0 40 40" fill="none" xmlns="http://www.w3.org/2000/svg">
<ellipse cx="18.3333" cy="8.33325" rx="13.3333" ry="5" stroke="#3B82F6" stroke-width="1.5"/>
<path d="M10 18.0696C11.0026 18.371 12.1239 18.6192 13.3333 18.8028" stroke="#3B82F6" stroke-width="1.5" stroke-linecap="round"/>
<path d="M18.3333 25C10.9695 25 5 22.7614 5 20" stroke="#3B82F6" stroke-width="1.5" stroke-linecap="round"/>
<path d="M10 29.7363C11.0026 30.0377 12.1239 30.2859 13.3333 30.4695" stroke="#3B82F6" stroke-width="1.5" stroke-linecap="round"/>
<path d="M18.3333 36.6666C10.9695 36.6666 5 34.428 5 31.6666V8.33325M31.6667 8.33325V19.9999" stroke="#3B82F6" stroke-width="1.5" stroke-linecap="round" stroke-linejoin="round"/>
<path d="M31.6667 27.789L29.7097 25.3114C28.6681 23.9926 28.1472 23.3333 27.5 23.3333C26.8528 23.3333 26.332 23.9926 25.2903 25.3114L23.3334 27.789M27.5 23.4786V36.6666" stroke="#3B82F6" stroke-width="1.5" stroke-linecap="round" stroke-linejoin="round"/>
</svg>
