<svg width="36" height="36" viewBox="0 0 36 36" fill="none" xmlns="http://www.w3.org/2000/svg">
<path d="M21 1.33325H14.3333C8.86795 1.33325 6.13526 1.33325 4.19818 2.68961C3.48151 3.19143 2.85817 3.81476 2.35636 4.53143C1 6.46851 1 9.2012 1 14.6666C1 20.132 1 22.8647 2.35636 24.8017C2.85817 25.5184 3.48151 26.1417 4.19818 26.6436C6.13526 27.9999 8.86795 27.9999 14.3333 27.9999H21C26.4654 27.9999 29.1981 27.9999 31.1352 26.6436C31.8518 26.1417 32.4752 25.5184 32.977 24.8017C34.3333 22.8647 34.3333 20.132 34.3333 14.6666" stroke="#3B82F6" stroke-width="1.5" stroke-linecap="round"/>
<path d="M29.0491 2.59022C29.5459 2.05197 29.7943 1.78285 30.0583 1.62587C30.6952 1.24709 31.4794 1.23531 32.1269 1.5948C32.3953 1.74379 32.6513 2.00533 33.1634 2.52843C33.6754 3.05152 33.9315 3.31307 34.0773 3.5872C34.4292 4.24866 34.4177 5.04978 34.0469 5.70039C33.8932 5.97002 33.6298 6.22377 33.1029 6.73126L26.8338 12.7694C25.8353 13.7312 25.336 14.212 24.712 14.4557C24.0881 14.6995 23.4021 14.6815 22.0302 14.6456L21.8436 14.6408C21.4259 14.6298 21.2171 14.6244 21.0957 14.4866C20.9743 14.3489 20.9909 14.1361 21.0241 13.7107L21.0421 13.4797C21.1353 12.2823 21.182 11.6836 21.4158 11.1454C21.6496 10.6072 22.053 10.1702 22.8596 9.29625L29.0491 2.59022Z" stroke="#3B82F6" stroke-width="1.5" stroke-linejoin="round"/>
<path d="M22.0928 34.6667L21.3947 33.9686C19.821 32.3948 19.4308 29.9906 20.4261 28" stroke="#3B82F6" stroke-width="1.5" stroke-linecap="round"/>
<path d="M12.6674 34.6667L13.3655 33.9686C14.9393 32.3948 15.3294 29.9906 14.3341 28" stroke="#3B82F6" stroke-width="1.5" stroke-linecap="round"/>
<path d="M9.33325 34.6667H25.9999" stroke="#3B82F6" stroke-width="1.5" stroke-linecap="round"/>
<path d="M11 14.6667H22.6667" stroke="#3B82F6" stroke-width="1.5" stroke-linecap="round" stroke-linejoin="round"/>
</svg>
