<svg width="139" height="37" viewBox="0 0 139 37" fill="none" xmlns="http://www.w3.org/2000/svg">
<path d="M114.059 27.2155V1.74318H122.374L120.941 7.47803C121.259 6.26734 121.88 5.20002 122.804 4.27608C123.728 3.32027 124.827 2.57155 126.102 2.02993C127.376 1.4883 128.714 1.21749 130.116 1.21749C132.028 1.21749 133.637 1.61574 134.943 2.41225C136.281 3.17689 137.285 4.3398 137.954 5.90095C138.655 7.43024 139.005 9.31 139.005 11.5402V27.2155H130.116V12.2571C130.116 11.4287 129.989 10.7437 129.734 10.2021C129.479 9.6286 129.097 9.19849 128.587 8.91175C128.077 8.62501 127.472 8.49756 126.771 8.52942C126.229 8.52942 125.72 8.60908 125.242 8.76838C124.796 8.92768 124.397 9.18256 124.047 9.53302C123.696 9.85163 123.426 10.218 123.234 10.6322C123.075 11.0464 122.996 11.5084 122.996 12.0181V27.2155H118.551C117.468 27.2155 116.544 27.2155 115.779 27.2155C115.046 27.2155 114.473 27.2155 114.059 27.2155Z" fill="#3B82F6"/>
<path d="M101.824 27.6934C98.9242 27.6934 96.4232 27.1358 94.3204 26.0207C92.2176 24.8738 90.5928 23.3126 89.4458 21.3373C88.2988 19.3301 87.7253 17.0521 87.7253 14.5032C87.7253 12.5916 88.0439 10.8234 88.6811 9.19849C89.3184 7.57362 90.2104 6.17176 91.3574 4.99293C92.5044 3.78224 93.8584 2.85829 95.4196 2.22109C97.0126 1.55202 98.749 1.21749 100.629 1.21749C102.477 1.21749 104.149 1.53609 105.647 2.1733C107.176 2.8105 108.482 3.71852 109.566 4.89735C110.681 6.07618 111.525 7.4621 112.098 9.05512C112.704 10.6481 112.975 12.4004 112.911 14.3121L112.863 16.3193L96.6622 16.3671V11.9225L105.742 11.8748L104.882 12.8306V11.9225C104.882 11.2216 104.691 10.6163 104.309 10.1065C103.958 9.56488 103.48 9.1507 102.875 8.86396C102.27 8.57722 101.585 8.43384 100.82 8.43384C99.7367 8.43384 98.8287 8.65687 98.0959 9.10291C97.3949 9.51709 96.8533 10.1224 96.471 10.9189C96.0887 11.7155 95.8975 12.6713 95.8975 13.7864C95.8975 15.0608 96.1524 16.16 96.6622 17.0839C97.2038 18.0079 97.9844 18.7247 99.0039 19.2345C100.055 19.7442 101.33 19.9991 102.827 19.9991C103.815 19.9991 104.675 19.8717 105.408 19.6168C106.172 19.3619 106.985 18.9159 107.845 18.2787L111.955 24.0613C110.84 24.9534 109.709 25.6703 108.562 26.2119C107.447 26.7216 106.332 27.088 105.217 27.3111C104.102 27.5659 102.97 27.6934 101.824 27.6934Z" fill="#3B82F6"/>
<path d="M75.9786 27.6934C73.3342 27.6934 71.0084 27.2792 69.0012 26.4508C66.994 25.6225 65.4329 24.5551 64.3177 23.2489L69.5269 18.7566C70.5464 19.6805 71.6934 20.3655 72.9678 20.8116C74.2741 21.2576 75.4211 21.4806 76.4087 21.4806C76.7592 21.4806 77.0778 21.4488 77.3645 21.385C77.6513 21.3213 77.8743 21.2257 78.0336 21.0983C78.2248 20.939 78.3681 20.7797 78.4637 20.6204C78.5912 20.4292 78.6549 20.2221 78.6549 19.9991C78.6549 19.4575 78.3841 19.0433 77.8424 18.7566C77.5557 18.6291 77.0778 18.4698 76.4087 18.2787C75.7715 18.0556 74.9113 17.8167 73.828 17.5618C72.4899 17.2114 71.2952 16.7972 70.2438 16.3193C69.1924 15.8095 68.3003 15.2201 67.5675 14.551C66.8666 13.882 66.309 13.1173 65.8948 12.2571C65.5125 11.365 65.3213 10.3933 65.3213 9.34186C65.3213 8.06745 65.6081 6.93641 66.1816 5.94874C66.7551 4.96107 67.5516 4.11678 68.5711 3.41585C69.5906 2.68306 70.7376 2.14144 72.012 1.79097C73.2864 1.40865 74.5927 1.21749 75.9308 1.21749C77.4283 1.21749 78.8301 1.37679 80.1364 1.69539C81.4745 1.98213 82.7171 2.41225 83.864 2.98573C85.0429 3.52736 86.0943 4.19642 87.0182 4.99293L82.4303 10.0587C81.8887 9.58081 81.2515 9.13477 80.5187 8.72059C79.8178 8.3064 79.085 7.97187 78.3203 7.71699C77.5557 7.43024 76.8388 7.28687 76.1698 7.28687C75.7556 7.28687 75.4051 7.31873 75.1184 7.38245C74.8316 7.44617 74.5927 7.54176 74.4015 7.6692C74.2104 7.79664 74.067 7.95594 73.9714 8.1471C73.8758 8.33826 73.828 8.54536 73.828 8.76838C73.828 9.05512 73.9077 9.32593 74.067 9.58081C74.2263 9.8357 74.4812 10.0428 74.8316 10.2021C75.1184 10.3614 75.5963 10.5685 76.2654 10.8234C76.9663 11.0464 77.9699 11.3331 79.2762 11.6836C80.7417 12.0978 82.0161 12.5757 83.0994 13.1173C84.1826 13.6589 85.0588 14.2802 85.7279 14.9811C86.2058 15.5228 86.5722 16.1281 86.827 16.7972C87.0819 17.4344 87.2094 18.1512 87.2094 18.9477C87.2094 20.6363 86.7155 22.1497 85.7279 23.4878C84.7721 24.7941 83.4499 25.8296 81.7613 26.5942C80.0727 27.327 78.1451 27.6934 75.9786 27.6934Z" fill="#3B82F6"/>
<path d="M53.0577 27.6934C50.1584 27.6934 47.6573 27.1358 45.5546 26.0207C43.4518 24.8738 41.8269 23.3126 40.6799 21.3373C39.533 19.3301 38.9595 17.0521 38.9595 14.5032C38.9595 12.5916 39.2781 10.8234 39.9153 9.19849C40.5525 7.57362 41.4446 6.17176 42.5915 4.99293C43.7385 3.78224 45.0926 2.85829 46.6537 2.22109C48.2467 1.55202 49.9831 1.21749 51.8629 1.21749C53.7108 1.21749 55.3835 1.53609 56.8809 2.1733C58.4102 2.8105 59.7164 3.71852 60.7997 4.89735C61.9148 6.07618 62.7591 7.4621 63.3326 9.05512C63.9379 10.6481 64.2088 12.4004 64.145 14.3121L64.0972 16.3193L48.2901 16.3671V11.9225L56.9765 11.8748L56.1162 12.8306V11.9225C56.1162 11.2216 55.9251 10.6163 55.5428 10.1065C55.1923 9.56488 54.7144 9.1507 54.109 8.86396C53.5037 8.57722 52.8187 8.43384 52.0541 8.43384C50.9708 8.43384 50.0628 8.65687 49.33 9.10291C48.6291 9.51709 48.0874 10.1224 47.7051 10.9189C47.3228 11.7155 47.1316 12.6713 47.1316 13.7864C47.1316 15.0608 47.3865 16.16 47.8963 17.0839C48.4379 18.0079 49.2185 18.7247 50.238 19.2345C51.2894 19.7442 52.5638 19.9991 54.0613 19.9991C55.0489 19.9991 55.9091 19.8717 56.6419 19.6168C57.4066 19.3619 58.219 18.9159 59.0792 18.2787L63.1892 24.0613C62.0741 24.9534 60.9431 25.6703 59.7961 26.2119C58.681 26.7216 57.5659 27.088 56.4508 27.3111C55.3357 27.5659 54.2046 27.6934 53.0577 27.6934Z" fill="#3B82F6"/>
<path d="M7.30484 1.21749H1.21741V18.2623H7.30484V1.21749Z" fill="#3B82F6"/>
<path d="M8.52241 0V19.4798H0V0H8.52241ZM2.43497 17.0448H6.08743V2.43497H2.43497V17.0448Z" fill="#3B82F6"/>
<path d="M14.797 20.08V1.21749H21.9146V20.08L14.797 28.0022H7.30481V20.08H14.797Z" fill="#3B82F6"/>
<path d="M23.1322 0V20.5463L15.3398 29.2197H6.0874V18.8627H13.5802V0H23.1322ZM16.0151 21.2977H8.52238V26.7847H14.2543L20.6972 19.6118V2.43497H16.0151V21.2977Z" fill="#3B82F6"/>
<path d="M29.4069 20.08V1.21749H36.5245V20.08L29.4069 28.0022H21.9147V20.08H29.4069Z" fill="#3B82F6"/>
<path d="M37.742 0V20.5463L29.9496 29.2197H20.6971V18.8627H28.1899V0H37.742ZM30.6249 21.2977H23.1321V26.7847H28.8641L35.307 19.6118V2.43497H30.6249V21.2977Z" fill="#3B82F6"/>
<path d="M101.774 35V31.034H102.512V35H101.774ZM101.15 32.522V31.838H103.202V32.522H101.15ZM105.217 35.06C104.885 35.06 104.591 34.99 104.335 34.85C104.083 34.71 103.885 34.52 103.741 34.28C103.601 34.036 103.531 33.758 103.531 33.446C103.531 33.198 103.571 32.972 103.651 32.768C103.731 32.564 103.841 32.388 103.981 32.24C104.125 32.088 104.295 31.972 104.491 31.892C104.691 31.808 104.909 31.766 105.145 31.766C105.353 31.766 105.547 31.806 105.727 31.886C105.907 31.966 106.063 32.076 106.195 32.216C106.327 32.352 106.427 32.516 106.495 32.708C106.567 32.896 106.601 33.102 106.597 33.326L106.591 33.584H104.029L103.891 33.08H105.973L105.877 33.182V33.05C105.865 32.926 105.825 32.818 105.757 32.726C105.689 32.63 105.601 32.556 105.493 32.504C105.389 32.448 105.273 32.42 105.145 32.42C104.949 32.42 104.783 32.458 104.647 32.534C104.515 32.61 104.415 32.72 104.347 32.864C104.279 33.004 104.245 33.18 104.245 33.392C104.245 33.596 104.287 33.774 104.371 33.926C104.459 34.078 104.581 34.196 104.737 34.28C104.897 34.36 105.083 34.4 105.295 34.4C105.443 34.4 105.579 34.376 105.703 34.328C105.827 34.28 105.961 34.194 106.105 34.07L106.471 34.58C106.363 34.68 106.239 34.766 106.099 34.838C105.963 34.906 105.819 34.96 105.667 35C105.515 35.04 105.365 35.06 105.217 35.06ZM108.606 35.06C108.31 35.06 108.044 34.988 107.808 34.844C107.572 34.7 107.386 34.504 107.25 34.256C107.114 34.008 107.046 33.728 107.046 33.416C107.046 33.104 107.114 32.824 107.25 32.576C107.386 32.328 107.572 32.132 107.808 31.988C108.044 31.844 108.31 31.772 108.606 31.772C108.89 31.772 109.148 31.826 109.38 31.934C109.612 32.042 109.792 32.192 109.92 32.384L109.512 32.876C109.452 32.792 109.376 32.716 109.284 32.648C109.192 32.58 109.094 32.526 108.99 32.486C108.886 32.446 108.782 32.426 108.678 32.426C108.502 32.426 108.344 32.47 108.204 32.558C108.068 32.642 107.96 32.76 107.88 32.912C107.8 33.06 107.76 33.228 107.76 33.416C107.76 33.604 107.8 33.772 107.88 33.92C107.964 34.068 108.076 34.186 108.216 34.274C108.356 34.362 108.512 34.406 108.684 34.406C108.788 34.406 108.888 34.39 108.984 34.358C109.084 34.322 109.178 34.272 109.266 34.208C109.354 34.144 109.436 34.064 109.512 33.968L109.92 34.466C109.784 34.642 109.596 34.786 109.356 34.898C109.12 35.006 108.87 35.06 108.606 35.06ZM110.485 35V30.56H111.217V32.486L111.079 32.558C111.119 32.414 111.197 32.284 111.313 32.168C111.429 32.048 111.567 31.952 111.727 31.88C111.887 31.808 112.051 31.772 112.219 31.772C112.459 31.772 112.659 31.82 112.819 31.916C112.983 32.012 113.105 32.156 113.185 32.348C113.269 32.54 113.311 32.78 113.311 33.068V35H112.573V33.122C112.573 32.962 112.551 32.83 112.507 32.726C112.463 32.618 112.395 32.54 112.303 32.492C112.211 32.44 112.099 32.416 111.967 32.42C111.859 32.42 111.759 32.438 111.667 32.474C111.579 32.506 111.501 32.554 111.433 32.618C111.369 32.678 111.317 32.748 111.277 32.828C111.241 32.908 111.223 32.996 111.223 33.092V35H110.857C110.785 35 110.717 35 110.653 35C110.593 35 110.537 35 110.485 35ZM114.141 35V31.838H114.861L114.873 32.486L114.735 32.558C114.775 32.414 114.853 32.284 114.969 32.168C115.085 32.048 115.223 31.952 115.383 31.88C115.543 31.808 115.707 31.772 115.875 31.772C116.115 31.772 116.315 31.82 116.475 31.916C116.639 32.012 116.761 32.156 116.841 32.348C116.925 32.54 116.967 32.78 116.967 33.068V35H116.229V33.122C116.229 32.962 116.207 32.83 116.163 32.726C116.119 32.618 116.051 32.54 115.959 32.492C115.867 32.44 115.755 32.416 115.623 32.42C115.515 32.42 115.415 32.438 115.323 32.474C115.235 32.506 115.157 32.554 115.089 32.618C115.025 32.678 114.973 32.748 114.933 32.828C114.897 32.908 114.879 32.996 114.879 33.092V35H114.513C114.441 35 114.373 35 114.309 35C114.249 35 114.193 35 114.141 35ZM119.243 35.06C118.927 35.06 118.645 34.99 118.397 34.85C118.149 34.706 117.953 34.51 117.809 34.262C117.665 34.014 117.593 33.732 117.593 33.416C117.593 33.1 117.665 32.818 117.809 32.57C117.953 32.322 118.149 32.128 118.397 31.988C118.645 31.844 118.927 31.772 119.243 31.772C119.555 31.772 119.835 31.844 120.083 31.988C120.331 32.128 120.525 32.322 120.665 32.57C120.809 32.818 120.881 33.1 120.881 33.416C120.881 33.732 120.809 34.014 120.665 34.262C120.525 34.51 120.331 34.706 120.083 34.85C119.835 34.99 119.555 35.06 119.243 35.06ZM119.243 34.406C119.415 34.406 119.567 34.362 119.699 34.274C119.835 34.186 119.941 34.068 120.017 33.92C120.097 33.772 120.135 33.604 120.131 33.416C120.135 33.224 120.097 33.054 120.017 32.906C119.941 32.758 119.835 32.642 119.699 32.558C119.567 32.47 119.415 32.426 119.243 32.426C119.071 32.426 118.915 32.47 118.775 32.558C118.639 32.642 118.533 32.76 118.457 32.912C118.381 33.06 118.343 33.228 118.343 33.416C118.343 33.604 118.381 33.772 118.457 33.92C118.533 34.068 118.639 34.186 118.775 34.274C118.915 34.362 119.071 34.406 119.243 34.406ZM121.547 35V30.56H122.291V35H121.547ZM124.546 35.06C124.23 35.06 123.948 34.99 123.7 34.85C123.452 34.706 123.256 34.51 123.112 34.262C122.968 34.014 122.896 33.732 122.896 33.416C122.896 33.1 122.968 32.818 123.112 32.57C123.256 32.322 123.452 32.128 123.7 31.988C123.948 31.844 124.23 31.772 124.546 31.772C124.858 31.772 125.138 31.844 125.386 31.988C125.634 32.128 125.828 32.322 125.968 32.57C126.112 32.818 126.184 33.1 126.184 33.416C126.184 33.732 126.112 34.014 125.968 34.262C125.828 34.51 125.634 34.706 125.386 34.85C125.138 34.99 124.858 35.06 124.546 35.06ZM124.546 34.406C124.718 34.406 124.87 34.362 125.002 34.274C125.138 34.186 125.244 34.068 125.32 33.92C125.4 33.772 125.438 33.604 125.434 33.416C125.438 33.224 125.4 33.054 125.32 32.906C125.244 32.758 125.138 32.642 125.002 32.558C124.87 32.47 124.718 32.426 124.546 32.426C124.374 32.426 124.218 32.47 124.078 32.558C123.942 32.642 123.836 32.76 123.76 32.912C123.684 33.06 123.646 33.228 123.646 33.416C123.646 33.604 123.684 33.772 123.76 33.92C123.836 34.068 123.942 34.186 124.078 34.274C124.218 34.362 124.374 34.406 124.546 34.406ZM128.266 36.38C128.03 36.38 127.794 36.344 127.558 36.272C127.326 36.2 127.138 36.106 126.994 35.99L127.258 35.444C127.342 35.504 127.436 35.556 127.54 35.6C127.644 35.644 127.754 35.678 127.87 35.702C127.99 35.726 128.108 35.738 128.224 35.738C128.436 35.738 128.612 35.704 128.752 35.636C128.896 35.572 129.004 35.472 129.076 35.336C129.148 35.204 129.184 35.038 129.184 34.838V34.256L129.292 34.298C129.268 34.422 129.202 34.54 129.094 34.652C128.986 34.764 128.85 34.856 128.686 34.928C128.522 34.996 128.354 35.03 128.182 35.03C127.882 35.03 127.616 34.96 127.384 34.82C127.156 34.68 126.974 34.49 126.838 34.25C126.706 34.006 126.64 33.726 126.64 33.41C126.64 33.094 126.706 32.814 126.838 32.57C126.97 32.322 127.15 32.128 127.378 31.988C127.61 31.844 127.87 31.772 128.158 31.772C128.278 31.772 128.394 31.786 128.506 31.814C128.618 31.842 128.72 31.882 128.812 31.934C128.908 31.986 128.994 32.044 129.07 32.108C129.146 32.172 129.208 32.24 129.256 32.312C129.304 32.384 129.334 32.454 129.346 32.522L129.19 32.57L129.202 31.838H129.928V34.784C129.928 35.04 129.89 35.266 129.814 35.462C129.738 35.658 129.628 35.824 129.484 35.96C129.34 36.1 129.166 36.204 128.962 36.272C128.758 36.344 128.526 36.38 128.266 36.38ZM128.296 34.4C128.476 34.4 128.634 34.358 128.77 34.274C128.91 34.19 129.018 34.074 129.094 33.926C129.17 33.778 129.208 33.608 129.208 33.416C129.208 33.22 129.168 33.048 129.088 32.9C129.012 32.748 128.906 32.63 128.77 32.546C128.634 32.462 128.476 32.42 128.296 32.42C128.116 32.42 127.958 32.464 127.822 32.552C127.686 32.636 127.578 32.754 127.498 32.906C127.422 33.054 127.384 33.224 127.384 33.416C127.384 33.604 127.422 33.774 127.498 33.926C127.578 34.074 127.686 34.19 127.822 34.274C127.958 34.358 128.116 34.4 128.296 34.4ZM130.866 35V31.838H131.604V35H130.866ZM131.226 31.166C131.078 31.166 130.962 31.13 130.878 31.058C130.798 30.982 130.758 30.876 130.758 30.74C130.758 30.612 130.8 30.508 130.884 30.428C130.968 30.348 131.082 30.308 131.226 30.308C131.378 30.308 131.494 30.346 131.574 30.422C131.658 30.494 131.7 30.6 131.7 30.74C131.7 30.864 131.658 30.966 131.574 31.046C131.49 31.126 131.374 31.166 131.226 31.166ZM134.021 35.06C133.689 35.06 133.395 34.99 133.139 34.85C132.887 34.71 132.689 34.52 132.545 34.28C132.405 34.036 132.335 33.758 132.335 33.446C132.335 33.198 132.375 32.972 132.455 32.768C132.535 32.564 132.645 32.388 132.785 32.24C132.929 32.088 133.099 31.972 133.295 31.892C133.495 31.808 133.713 31.766 133.949 31.766C134.157 31.766 134.351 31.806 134.531 31.886C134.711 31.966 134.867 32.076 134.999 32.216C135.131 32.352 135.231 32.516 135.299 32.708C135.371 32.896 135.405 33.102 135.401 33.326L135.395 33.584H132.833L132.695 33.08H134.777L134.681 33.182V33.05C134.669 32.926 134.629 32.818 134.561 32.726C134.493 32.63 134.405 32.556 134.297 32.504C134.193 32.448 134.077 32.42 133.949 32.42C133.753 32.42 133.587 32.458 133.451 32.534C133.319 32.61 133.219 32.72 133.151 32.864C133.083 33.004 133.049 33.18 133.049 33.392C133.049 33.596 133.091 33.774 133.175 33.926C133.263 34.078 133.385 34.196 133.541 34.28C133.701 34.36 133.887 34.4 134.099 34.4C134.247 34.4 134.383 34.376 134.507 34.328C134.631 34.28 134.765 34.194 134.909 34.07L135.275 34.58C135.167 34.68 135.043 34.766 134.903 34.838C134.767 34.906 134.623 34.96 134.471 35C134.319 35.04 134.169 35.06 134.021 35.06ZM137.111 35.06C136.831 35.06 136.579 35.014 136.355 34.922C136.135 34.826 135.955 34.69 135.815 34.514L136.295 34.1C136.415 34.236 136.549 34.334 136.697 34.394C136.845 34.454 137.001 34.484 137.165 34.484C137.233 34.484 137.293 34.476 137.345 34.46C137.401 34.444 137.449 34.42 137.489 34.388C137.529 34.356 137.559 34.32 137.579 34.28C137.603 34.236 137.615 34.188 137.615 34.136C137.615 34.04 137.579 33.964 137.507 33.908C137.467 33.88 137.403 33.85 137.315 33.818C137.231 33.786 137.121 33.754 136.985 33.722C136.769 33.666 136.589 33.602 136.445 33.53C136.301 33.454 136.189 33.37 136.109 33.278C136.041 33.202 135.989 33.116 135.953 33.02C135.921 32.924 135.905 32.82 135.905 32.708C135.905 32.568 135.935 32.442 135.995 32.33C136.059 32.214 136.145 32.114 136.253 32.03C136.361 31.946 136.487 31.882 136.631 31.838C136.775 31.794 136.925 31.772 137.081 31.772C137.241 31.772 137.395 31.792 137.543 31.832C137.695 31.872 137.835 31.93 137.963 32.006C138.095 32.078 138.207 32.166 138.299 32.27L137.891 32.72C137.815 32.648 137.731 32.584 137.639 32.528C137.551 32.472 137.461 32.428 137.369 32.396C137.277 32.36 137.191 32.342 137.111 32.342C137.035 32.342 136.967 32.35 136.907 32.366C136.847 32.378 136.797 32.398 136.757 32.426C136.717 32.454 136.685 32.49 136.661 32.534C136.641 32.574 136.631 32.622 136.631 32.678C136.635 32.726 136.647 32.772 136.667 32.816C136.691 32.856 136.723 32.89 136.763 32.918C136.807 32.946 136.873 32.978 136.961 33.014C137.049 33.05 137.163 33.084 137.303 33.116C137.499 33.168 137.663 33.226 137.795 33.29C137.927 33.354 138.031 33.428 138.107 33.512C138.183 33.584 138.237 33.668 138.269 33.764C138.301 33.86 138.317 33.966 138.317 34.082C138.317 34.27 138.263 34.438 138.155 34.586C138.051 34.734 137.907 34.85 137.723 34.934C137.543 35.018 137.339 35.06 137.111 35.06Z" fill="white"/>
</svg>
