<svg width="40" height="40" viewBox="0 0 40 40" fill="none" xmlns="http://www.w3.org/2000/svg">
<path d="M8.3335 13.3334C8.35083 8.92605 8.5135 6.56838 10.04 5.04192C11.7485 3.33337 14.4984 3.33337 19.9981 3.33337C25.4978 3.33337 28.2477 3.33337 29.9562 5.04192C31.4827 6.56838 31.6454 8.92605 31.6627 13.3334M8.3335 26.6667C8.35083 31.074 8.5135 33.4317 10.04 34.9582C11.7485 36.6667 14.4984 36.6667 19.9981 36.6667C25.4978 36.6667 28.2477 36.6667 29.9562 34.9582C31.4827 33.4317 31.6454 31.074 31.6627 26.6667" stroke="#3B82F6" stroke-width="1.5" stroke-linecap="round"/>
<path d="M18.3335 31.6666H21.6668" stroke="#3B82F6" stroke-width="1.5" stroke-linecap="round" stroke-linejoin="round"/>
<path d="M26.6667 16.6666L28.7109 18.4286C29.5703 19.1694 30 19.5397 30 20C30 20.4602 29.5703 20.8306 28.7109 21.5713L26.6667 23.3333" stroke="#3B82F6" stroke-width="1.5" stroke-linecap="round" stroke-linejoin="round"/>
<path d="M13.3333 16.6666L11.2891 18.4286C10.4297 19.1694 10 19.5397 10 20C10 20.4602 10.4297 20.8306 11.2891 21.5713L13.3333 23.3333" stroke="#3B82F6" stroke-width="1.5" stroke-linecap="round" stroke-linejoin="round"/>
<path d="M21.6668 15L18.3335 25" stroke="#3B82F6" stroke-width="1.5" stroke-linecap="round" stroke-linejoin="round"/>
</svg>
