<svg width="800" height="400" viewBox="0 0 800 400" xmlns="http://www.w3.org/2000/svg"><mask id="satori_om-id"><rect x="0" y="0" width="800" height="400" fill="#fff"/></mask><rect x="0" y="0" width="800" height="400" fill="#1F2937"/><mask id="satori_om-id-0"><rect x="0" y="108" width="800" height="184" fill="#fff"/></mask><rect x="0" y="108" width="800" height="184" fill="#1F2937"/><mask id="satori_om-id-0-0"><rect x="0" y="108" width="800" height="184" fill="#fff"/></mask><mask id="satori_om-id-0-0-0"><rect x="32" y="160" width="502" height="80" fill="#fff"/></mask><mask id="satori_om-id-0-0-0-0"><rect x="32" y="160" width="502" height="40" fill="#fff"/></mask><g  ><path fill="#fff" d="M45.6 193L40.2 193L32.7 166.8L38.7 166.8L43.1 185.0L43.3 185.0L48.1 166.8L53.2 166.8L58.0 185.0L58.2 185.0L62.6 166.8L68.6 166.8L61.1 193L55.7 193L50.7 175.9L50.5 175.9L45.6 193ZM77.4 193.4L77.4 193.4Q74.4 193.4 72.2 192.1Q70.0 190.9 68.8 188.6Q67.6 186.4 67.6 183.3L67.6 183.3Q67.6 180.2 68.8 178.0Q70.0 175.7 72.1 174.4Q74.3 173.1 77.2 173.1L77.2 173.1Q79.1 173.1 80.8 173.7Q82.5 174.3 83.7 175.6Q85.0 176.8 85.7 178.7Q86.4 180.6 86.4 183.1L86.4 183.1L86.4 184.6L69.8 184.6L69.8 181.2L81.3 181.2Q81.3 180.0 80.8 179.1Q80.3 178.2 79.4 177.7Q78.5 177.2 77.3 177.2L77.3 177.2Q76.0 177.2 75.1 177.7Q74.1 178.3 73.6 179.3Q73.0 180.2 73.0 181.4L73.0 181.4L73.0 184.6Q73.0 186.0 73.6 187.1Q74.1 188.2 75.1 188.7Q76.1 189.3 77.5 189.3L77.5 189.3Q78.4 189.3 79.1 189.1Q79.9 188.8 80.4 188.3Q81.0 187.8 81.3 187.0L81.3 187.0L86.3 187.4Q85.9 189.2 84.7 190.5Q83.5 191.9 81.7 192.6Q79.8 193.4 77.4 193.4ZM108.7 174.3L103.4 174.3Q103.2 172.8 102.0 171.9Q100.9 171.1 98.9 171.1L98.9 171.1Q97.5 171.1 96.6 171.5Q95.7 171.8 95.2 172.5Q94.7 173.2 94.7 174.0L94.7 174.0Q94.7 174.7 95.0 175.2Q95.3 175.8 95.9 176.1Q96.5 176.5 97.2 176.8Q98.0 177.1 98.8 177.3L98.8 177.3L101.2 177.8Q102.9 178.2 104.3 178.8Q105.8 179.5 106.8 180.4Q107.9 181.4 108.4 182.6Q109.0 183.9 109.0 185.5L109.0 185.5Q109.0 187.9 107.8 189.7Q106.6 191.4 104.3 192.4Q102.1 193.4 98.9 193.4L98.9 193.4Q95.7 193.4 93.3 192.4Q91.0 191.4 89.7 189.5Q88.4 187.6 88.3 184.8L88.3 184.8L93.7 184.8Q93.8 186.1 94.4 187.0Q95.1 187.8 96.2 188.3Q97.4 188.7 98.8 188.7L98.8 188.7Q100.2 188.7 101.2 188.3Q102.3 187.9 102.9 187.2Q103.4 186.5 103.4 185.5L103.4 185.5Q103.4 184.6 102.9 184.0Q102.4 183.4 101.4 183.0Q100.4 182.6 99.0 182.2L99.0 182.2L96.1 181.5Q92.8 180.7 90.9 179.0Q89.0 177.3 89.0 174.4L89.0 174.4Q89.0 172.0 90.3 170.2Q91.6 168.5 93.8 167.5Q96.1 166.5 98.9 166.5L98.9 166.5Q101.8 166.5 104.0 167.5Q106.2 168.5 107.4 170.2Q108.6 172.0 108.7 174.3L108.7 174.3ZM120.7 193.4L120.7 193.4Q117.7 193.4 115.5 192.1Q113.3 190.9 112.1 188.6Q110.9 186.4 110.9 183.3L110.9 183.3Q110.9 180.2 112.1 178.0Q113.3 175.7 115.4 174.4Q117.6 173.1 120.5 173.1L120.5 173.1Q122.4 173.1 124.1 173.7Q125.8 174.3 127.0 175.6Q128.3 176.8 129.0 178.7Q129.7 180.6 129.7 183.1L129.7 183.1L129.7 184.6L113.1 184.6L113.1 181.2L124.6 181.2Q124.6 180.0 124.1 179.1Q123.5 178.2 122.6 177.7Q121.7 177.2 120.6 177.2L120.6 177.2Q119.3 177.2 118.4 177.7Q117.4 178.3 116.9 179.3Q116.3 180.2 116.3 181.4L116.3 181.4L116.3 184.6Q116.3 186.0 116.9 187.1Q117.4 188.2 118.4 188.7Q119.4 189.3 120.8 189.3L120.8 189.3Q121.7 189.3 122.4 189.1Q123.2 188.8 123.7 188.3Q124.3 187.8 124.5 187.0L124.5 187.0L129.6 187.4Q129.2 189.2 128.0 190.5Q126.8 191.9 125.0 192.6Q123.1 193.4 120.7 193.4ZM137.8 181.6L137.8 181.6L137.8 193L132.3 193L132.3 173.4L137.5 173.4L137.5 176.8L137.8 176.8Q138.4 175.1 140.0 174.1Q141.5 173.1 143.7 173.1L143.7 173.1Q145.7 173.1 147.2 174.0Q148.8 174.9 149.6 176.6Q150.4 178.2 150.4 180.5L150.4 180.5L150.4 193L145.0 193L145.0 181.5Q145.0 179.7 144.1 178.6Q143.1 177.6 141.5 177.6L141.5 177.6Q140.4 177.6 139.6 178.1Q138.7 178.6 138.3 179.5Q137.8 180.4 137.8 181.6Z M170.5 171.4L162.5 171.4L162.5 166.8L184.0 166.8L184.0 171.4L176.0 171.4L176.0 193L170.5 193L170.5 171.4ZM192.6 193.4L192.6 193.4Q189.6 193.4 187.4 192.1Q185.3 190.9 184.1 188.6Q182.9 186.4 182.9 183.3L182.9 183.3Q182.9 180.2 184.1 178.0Q185.3 175.7 187.4 174.4Q189.5 173.1 192.4 173.1L192.4 173.1Q194.4 173.1 196.1 173.7Q197.7 174.3 199.0 175.6Q200.3 176.8 201.0 178.7Q201.7 180.6 201.7 183.1L201.7 183.1L201.7 184.6L185.1 184.6L185.1 181.2L196.5 181.2Q196.5 180.0 196.0 179.1Q195.5 178.2 194.6 177.7Q193.7 177.2 192.5 177.2L192.5 177.2Q191.3 177.2 190.3 177.7Q189.4 178.3 188.8 179.3Q188.3 180.2 188.3 181.4L188.3 181.4L188.3 184.6Q188.3 186.0 188.8 187.1Q189.4 188.2 190.4 188.7Q191.4 189.3 192.7 189.3L192.7 189.3Q193.6 189.3 194.4 189.1Q195.2 188.8 195.7 188.3Q196.2 187.8 196.5 187.0L196.5 187.0L201.5 187.4Q201.2 189.2 200.0 190.5Q198.8 191.9 196.9 192.6Q195.1 193.4 192.6 193.4ZM213.2 193.4L213.2 193.4Q210.2 193.4 208.0 192.1Q205.8 190.8 204.7 188.5Q203.5 186.2 203.5 183.3L203.5 183.3Q203.5 180.2 204.7 178.0Q205.9 175.7 208.0 174.4Q210.2 173.1 213.2 173.1L213.2 173.1Q215.7 173.1 217.7 174.0Q219.6 175.0 220.7 176.7Q221.8 178.3 222.0 180.6L222.0 180.6L216.8 180.6Q216.6 179.2 215.7 178.3Q214.7 177.4 213.3 177.4L213.3 177.4Q212.0 177.4 211.0 178.0Q210.1 178.7 209.6 180.0Q209.1 181.3 209.1 183.2L209.1 183.2Q209.1 185.1 209.6 186.4Q210.1 187.7 211.0 188.4Q212.0 189.1 213.3 189.1L213.3 189.1Q214.2 189.1 214.9 188.7Q215.7 188.3 216.2 187.6Q216.7 186.8 216.8 185.8L216.8 185.8L222.0 185.8Q221.8 188.1 220.7 189.8Q219.6 191.5 217.7 192.4Q215.8 193.4 213.2 193.4ZM230.0 181.6L230.0 181.6L230.0 193L224.6 193L224.6 166.8L229.9 166.8L229.9 176.8L230.1 176.8Q230.7 175.1 232.2 174.1Q233.7 173.1 235.9 173.1L235.9 173.1Q238.0 173.1 239.5 174.0Q241.1 174.9 241.9 176.5Q242.8 178.2 242.7 180.5L242.7 180.5L242.7 193L237.3 193L237.3 181.5Q237.3 179.7 236.4 178.6Q235.5 177.6 233.8 177.6L233.8 177.6Q232.7 177.6 231.8 178.1Q231.0 178.6 230.5 179.5Q230.0 180.4 230.0 181.6ZM251.6 181.6L251.6 181.6L251.6 193L246.1 193L246.1 173.4L251.3 173.4L251.3 176.8L251.6 176.8Q252.2 175.1 253.7 174.1Q255.3 173.1 257.5 173.1L257.5 173.1Q259.5 173.1 261.0 174.0Q262.5 174.9 263.4 176.6Q264.2 178.2 264.2 180.5L264.2 180.5L264.2 193L258.8 193L258.8 181.5Q258.8 179.7 257.9 178.6Q256.9 177.6 255.3 177.6L255.3 177.6Q254.2 177.6 253.4 178.1Q252.5 178.6 252.1 179.5Q251.6 180.4 251.6 181.6ZM276.5 193.4L276.5 193.4Q273.5 193.4 271.3 192.1Q269.2 190.8 268.0 188.6Q266.8 186.3 266.8 183.3L266.8 183.3Q266.8 180.2 268.0 177.9Q269.2 175.7 271.3 174.4Q273.5 173.1 276.5 173.1L276.5 173.1Q279.5 173.1 281.6 174.4Q283.8 175.7 285.0 177.9Q286.2 180.2 286.2 183.3L286.2 183.3Q286.2 186.3 285.0 188.6Q283.8 190.8 281.6 192.1Q279.5 193.4 276.5 193.4ZM276.5 189.2L276.5 189.2Q277.9 189.2 278.8 188.4Q279.7 187.6 280.2 186.3Q280.6 184.9 280.6 183.2L280.6 183.2Q280.6 181.5 280.2 180.2Q279.7 178.8 278.8 178.0Q277.9 177.3 276.5 177.3L276.5 177.3Q275.1 177.3 274.2 178.0Q273.3 178.8 272.8 180.2Q272.4 181.5 272.4 183.2L272.4 183.2Q272.4 184.9 272.8 186.3Q273.3 187.6 274.2 188.4Q275.1 189.2 276.5 189.2ZM288.8 166.8L294.3 166.8L294.3 193L288.8 193L288.8 166.8ZM306.6 193.4L306.6 193.4Q303.6 193.4 301.4 192.1Q299.3 190.8 298.1 188.6Q296.9 186.3 296.9 183.3L296.9 183.3Q296.9 180.2 298.1 177.9Q299.3 175.7 301.4 174.4Q303.6 173.1 306.6 173.1L306.6 173.1Q309.6 173.1 311.7 174.4Q313.9 175.7 315.1 177.9Q316.2 180.2 316.2 183.3L316.2 183.3Q316.2 186.3 315.1 188.6Q313.9 190.8 311.7 192.1Q309.6 193.4 306.6 193.4ZM306.6 189.2L306.6 189.2Q308.0 189.2 308.9 188.4Q309.8 187.6 310.2 186.3Q310.7 184.9 310.7 183.2L310.7 183.2Q310.7 181.5 310.2 180.2Q309.8 178.8 308.9 178.0Q308.0 177.3 306.6 177.3L306.6 177.3Q305.2 177.3 304.3 178.0Q303.4 178.8 302.9 180.2Q302.4 181.5 302.4 183.2L302.4 183.2Q302.4 184.9 302.9 186.3Q303.4 187.6 304.3 188.4Q305.2 189.2 306.6 189.2ZM327.7 200.8L327.7 200.8Q325.1 200.8 323.2 200.1Q321.3 199.3 320.2 198.1Q319.1 196.8 318.8 195.3L318.8 195.3L323.8 194.6Q324.0 195.2 324.5 195.7Q325.0 196.2 325.9 196.5Q326.7 196.9 327.9 196.9L327.9 196.9Q329.6 196.9 330.8 196.0Q332.0 195.1 332.0 193.1L332.0 193.1L332.0 189.5L331.7 189.5Q331.4 190.3 330.7 191.1Q329.9 191.8 328.8 192.3Q327.7 192.7 326.1 192.7L326.1 192.7Q323.9 192.7 322.1 191.7Q320.3 190.7 319.2 188.5Q318.2 186.4 318.2 183.1L318.2 183.1Q318.2 179.8 319.3 177.6Q320.3 175.3 322.1 174.2Q324.0 173.1 326.1 173.1L326.1 173.1Q327.8 173.1 328.9 173.7Q330.0 174.2 330.7 175.0Q331.4 175.9 331.7 176.7L331.7 176.7L331.9 176.7L331.9 173.4L337.3 173.4L337.3 193.2Q337.3 195.7 336.1 197.4Q334.9 199.1 332.7 199.9Q330.6 200.8 327.7 200.8ZM327.9 188.6L327.9 188.6Q329.2 188.6 330.1 188.0Q331.0 187.3 331.5 186.1Q332.0 184.8 332.0 183.1L332.0 183.1Q332.0 181.4 331.5 180.1Q331.0 178.8 330.1 178.1Q329.2 177.4 327.9 177.4L327.9 177.4Q326.5 177.4 325.6 178.2Q324.7 178.9 324.2 180.2Q323.7 181.4 323.7 183.1L323.7 183.1Q323.7 184.8 324.2 186.1Q324.7 187.3 325.6 188.0Q326.5 188.6 327.9 188.6ZM346.2 193L340.8 193L340.8 173.4L346.2 173.4L346.2 193ZM343.5 170.8L343.5 170.8Q342.3 170.8 341.4 170.0Q340.6 169.2 340.6 168.1L340.6 168.1Q340.6 166.9 341.4 166.1Q342.3 165.3 343.5 165.3L343.5 165.3Q344.7 165.3 345.6 166.1Q346.5 166.9 346.5 168.1L346.5 168.1Q346.5 169.2 345.6 170.0Q344.7 170.8 343.5 170.8ZM358.6 193.4L358.6 193.4Q355.6 193.4 353.4 192.1Q351.2 190.9 350.1 188.6Q348.9 186.4 348.9 183.3L348.9 183.3Q348.9 180.2 350.1 178.0Q351.2 175.7 353.4 174.4Q355.5 173.1 358.4 173.1L358.4 173.1Q360.4 173.1 362.0 173.7Q363.7 174.3 365.0 175.6Q366.2 176.8 366.9 178.7Q367.6 180.6 367.6 183.1L367.6 183.1L367.6 184.6L351.1 184.6L351.1 181.2L362.5 181.2Q362.5 180.0 362.0 179.1Q361.5 178.2 360.6 177.7Q359.7 177.2 358.5 177.2L358.5 177.2Q357.3 177.2 356.3 177.7Q355.4 178.3 354.8 179.3Q354.3 180.2 354.3 181.4L354.3 181.4L354.3 184.6Q354.3 186.0 354.8 187.1Q355.4 188.2 356.4 188.7Q357.4 189.3 358.7 189.3L358.7 189.3Q359.6 189.3 360.4 189.1Q361.1 188.8 361.7 188.3Q362.2 187.8 362.5 187.0L362.5 187.0L367.5 187.4Q367.1 189.2 366.0 190.5Q364.8 191.9 362.9 192.6Q361.1 193.4 358.6 193.4ZM386.6 179.0L386.6 179.0L381.6 179.3Q381.5 178.6 381.1 178.1Q380.7 177.6 380.0 177.3Q379.3 177.0 378.4 177.0L378.4 177.0Q377.1 177.0 376.2 177.5Q375.4 178.0 375.4 178.9L375.4 178.9Q375.4 179.6 375.9 180.1Q376.5 180.6 377.9 180.9L377.9 180.9L381.4 181.6Q384.3 182.2 385.7 183.5Q387.1 184.8 387.1 186.9L387.1 186.9Q387.1 188.8 385.9 190.3Q384.8 191.8 382.9 192.6Q380.9 193.4 378.3 193.4L378.3 193.4Q374.4 193.4 372.1 191.8Q369.8 190.1 369.4 187.3L369.4 187.3L374.8 187.0Q375.0 188.2 376.0 188.8Q376.9 189.5 378.3 189.5L378.3 189.5Q379.8 189.5 380.7 188.9Q381.5 188.3 381.5 187.5L381.5 187.5Q381.5 186.7 380.9 186.2Q380.3 185.8 379.0 185.5L379.0 185.5L375.6 184.8Q372.7 184.3 371.3 182.8Q370.0 181.4 370.0 179.2L370.0 179.2Q370.0 177.3 371.0 176.0Q372.0 174.6 373.9 173.8Q375.8 173.1 378.3 173.1L378.3 173.1Q382.0 173.1 384.1 174.7Q386.3 176.3 386.6 179.0Z "/></g><mask id="satori_om-id-0-0-0-1"><rect x="32" y="200" width="502" height="40" fill="#fff"/></mask><g  ><path fill="#3B82F6" d="M53.8 214.3L48.5 214.3Q48.3 212.8 47.2 211.9Q46.0 211.1 44.0 211.1L44.0 211.1Q42.6 211.1 41.7 211.5Q40.8 211.8 40.3 212.5Q39.8 213.2 39.8 214.0L39.8 214.0Q39.8 214.7 40.1 215.2Q40.4 215.8 41 216.1Q41.6 216.5 42.3 216.8Q43.1 217.1 43.9 217.3L43.9 217.3L46.3 217.8Q48.0 218.2 49.4 218.8Q50.9 219.5 51.9 220.4Q53.0 221.4 53.5 222.6Q54.1 223.9 54.1 225.5L54.1 225.5Q54.1 227.9 52.9 229.7Q51.7 231.4 49.4 232.4Q47.2 233.4 44.0 233.4L44.0 233.4Q40.8 233.4 38.5 232.4Q36.1 231.4 34.8 229.5Q33.5 227.6 33.4 224.8L33.4 224.8L38.8 224.8Q38.9 226.1 39.5 227.0Q40.2 227.8 41.4 228.3Q42.5 228.7 43.9 228.7L43.9 228.7Q45.3 228.7 46.4 228.3Q47.4 227.9 48.0 227.2Q48.6 226.5 48.6 225.5L48.6 225.5Q48.6 224.6 48.0 224.0Q47.5 223.4 46.5 223.0Q45.5 222.6 44.1 222.2L44.1 222.2L41.3 221.5Q37.9 220.7 36.0 219.0Q34.1 217.3 34.1 214.4L34.1 214.4Q34.1 212.0 35.4 210.2Q36.7 208.5 38.9 207.5Q41.2 206.5 44.0 206.5L44.0 206.5Q47.0 206.5 49.1 207.5Q51.3 208.5 52.5 210.2Q53.7 212.0 53.8 214.3L53.8 214.3ZM65.7 233.4L65.7 233.4Q62.7 233.4 60.6 232.1Q58.4 230.8 57.2 228.6Q56.1 226.3 56.1 223.3L56.1 223.3Q56.1 220.2 57.2 217.9Q58.4 215.7 60.6 214.4Q62.7 213.1 65.7 213.1L65.7 213.1Q68.7 213.1 70.9 214.4Q73.0 215.7 74.2 217.9Q75.4 220.2 75.4 223.3L75.4 223.3Q75.4 226.3 74.2 228.6Q73.0 230.8 70.9 232.1Q68.7 233.4 65.7 233.4ZM65.7 229.2L65.7 229.2Q67.1 229.2 68.0 228.4Q68.9 227.6 69.4 226.3Q69.8 224.9 69.8 223.2L69.8 223.2Q69.8 221.5 69.4 220.2Q68.9 218.8 68.0 218.0Q67.1 217.3 65.7 217.3L65.7 217.3Q64.4 217.3 63.5 218.0Q62.5 218.8 62.1 220.2Q61.6 221.5 61.6 223.2L61.6 223.2Q61.6 224.9 62.1 226.3Q62.5 227.6 63.5 228.4Q64.4 229.2 65.7 229.2ZM78.0 206.8L83.5 206.8L83.5 233L78.0 233L78.0 206.8ZM99.5 224.6L99.5 224.6L99.5 213.4L105.0 213.4L105.0 233L99.7 233L99.7 229.4L99.5 229.4Q98.9 231.2 97.3 232.2Q95.8 233.3 93.6 233.3L93.6 233.3Q91.6 233.3 90.1 232.4Q88.6 231.5 87.8 229.8Q86.9 228.2 86.9 225.9L86.9 225.9L86.9 213.4L92.4 213.4L92.4 224.9Q92.4 226.6 93.3 227.6Q94.2 228.7 95.8 228.7L95.8 228.7Q96.8 228.7 97.6 228.2Q98.5 227.7 99.0 226.9Q99.5 226.0 99.5 224.6ZM117.3 233.4L117.3 233.4Q114.3 233.4 112.1 232.1Q109.9 230.8 108.8 228.5Q107.6 226.2 107.6 223.3L107.6 223.3Q107.6 220.2 108.8 218.0Q110.0 215.7 112.1 214.4Q114.3 213.1 117.3 213.1L117.3 213.1Q119.8 213.1 121.8 214.0Q123.7 215.0 124.8 216.7Q125.9 218.3 126.1 220.6L126.1 220.6L120.9 220.6Q120.7 219.2 119.8 218.3Q118.8 217.4 117.4 217.4L117.4 217.4Q116.1 217.4 115.1 218.0Q114.2 218.7 113.7 220.0Q113.2 221.3 113.2 223.2L113.2 223.2Q113.2 225.1 113.7 226.4Q114.2 227.7 115.1 228.4Q116.1 229.1 117.4 229.1L117.4 229.1Q118.3 229.1 119.0 228.7Q119.8 228.3 120.3 227.6Q120.8 226.8 120.9 225.8L120.9 225.8L126.1 225.8Q125.9 228.1 124.8 229.8Q123.7 231.5 121.8 232.4Q119.9 233.4 117.3 233.4ZM115.4 235.5L116.0 232.9L118.5 232.9L118.3 234.0Q119.6 234.2 120.5 235.0Q121.3 235.8 121.3 237.1L121.3 237.1Q121.3 239.0 119.6 240.2Q117.8 241.3 114.6 241.3L114.6 241.3L114.5 238.9Q116.1 238.9 117.0 238.5Q118.0 238.1 118.0 237.3L118.0 237.3Q118.0 236.5 117.4 236.1Q116.8 235.7 115.4 235.5L115.4 235.5ZM137.5 233.4L137.5 233.4Q134.6 233.4 132.4 232.1Q130.2 230.8 129.0 228.6Q127.9 226.3 127.9 223.3L127.9 223.3Q127.9 220.2 129.0 217.9Q130.2 215.7 132.4 214.4Q134.6 213.1 137.5 213.1L137.5 213.1Q140.5 213.1 142.7 214.4Q144.8 215.7 146.0 217.9Q147.2 220.2 147.2 223.3L147.2 223.3Q147.2 226.3 146.0 228.6Q144.8 230.8 142.7 232.1Q140.5 233.4 137.5 233.4ZM137.6 229.2L137.6 229.2Q138.9 229.2 139.8 228.4Q140.7 227.6 141.2 226.3Q141.7 224.9 141.7 223.2L141.7 223.2Q141.7 221.5 141.2 220.2Q140.7 218.8 139.8 218.0Q138.9 217.3 137.6 217.3L137.6 217.3Q136.2 217.3 135.3 218.0Q134.3 218.8 133.9 220.2Q133.4 221.5 133.4 223.2L133.4 223.2Q133.4 224.9 133.9 226.3Q134.3 227.6 135.3 228.4Q136.2 229.2 137.6 229.2ZM133.9 210.9L133.9 210.9L130.8 210.9Q130.8 208.5 132.1 207.2Q133.3 205.9 135.0 205.8L135.0 205.8Q135.9 205.8 136.5 206.1Q137.2 206.4 137.7 206.8Q138.2 207.2 138.7 207.5Q139.2 207.8 139.7 207.8L139.7 207.8Q140.5 207.8 140.9 207.2Q141.2 206.7 141.2 205.8L141.2 205.8L144.2 205.9Q144.2 208.3 143.0 209.6Q141.8 210.9 140.1 210.9L140.1 210.9Q139.1 210.9 138.5 210.6Q137.8 210.3 137.3 210.0Q136.8 209.6 136.4 209.3Q135.9 209.0 135.3 209.0L135.3 209.0Q134.7 209.0 134.3 209.5Q133.9 210.1 133.9 210.9ZM158.8 233.4L158.8 233.4Q155.8 233.4 153.6 232.1Q151.4 230.9 150.2 228.6Q149.1 226.4 149.1 223.3L149.1 223.3Q149.1 220.2 150.2 218.0Q151.4 215.7 153.6 214.4Q155.7 213.1 158.6 213.1L158.6 213.1Q160.5 213.1 162.2 213.7Q163.9 214.3 165.1 215.6Q166.4 216.8 167.1 218.7Q167.8 220.6 167.8 223.1L167.8 223.1L167.8 224.6L151.2 224.6L151.2 221.2L162.7 221.2Q162.7 220.0 162.2 219.1Q161.7 218.2 160.8 217.7Q159.9 217.2 158.7 217.2L158.7 217.2Q157.4 217.2 156.5 217.7Q155.5 218.3 155.0 219.3Q154.5 220.2 154.4 221.4L154.4 221.4L154.4 224.6Q154.4 226.0 155.0 227.1Q155.5 228.2 156.5 228.7Q157.5 229.3 158.9 229.3L158.9 229.3Q159.8 229.3 160.6 229.1Q161.3 228.8 161.8 228.3Q162.4 227.8 162.7 227.0L162.7 227.0L167.7 227.4Q167.3 229.2 166.1 230.5Q164.9 231.9 163.1 232.6Q161.2 233.4 158.8 233.4ZM186.8 219.0L186.8 219.0L181.8 219.3Q181.7 218.6 181.3 218.1Q180.8 217.6 180.2 217.3Q179.5 217.0 178.5 217.0L178.5 217.0Q177.3 217.0 176.4 217.5Q175.5 218.0 175.5 218.9L175.5 218.9Q175.5 219.6 176.1 220.1Q176.7 220.6 178.0 220.9L178.0 220.9L181.6 221.6Q184.4 222.2 185.8 223.5Q187.3 224.8 187.3 226.9L187.3 226.9Q187.3 228.8 186.1 230.3Q185.0 231.8 183.0 232.6Q181.1 233.4 178.5 233.4L178.5 233.4Q174.6 233.4 172.3 231.8Q170.0 230.1 169.6 227.3L169.6 227.3L175.0 227.0Q175.2 228.2 176.1 228.8Q177.1 229.5 178.5 229.5L178.5 229.5Q180.0 229.5 180.8 228.9Q181.7 228.3 181.7 227.5L181.7 227.5Q181.7 226.7 181.1 226.2Q180.5 225.8 179.2 225.5L179.2 225.5L175.8 224.8Q172.9 224.3 171.5 222.8Q170.1 221.4 170.1 219.2L170.1 219.2Q170.1 217.3 171.2 216.0Q172.2 214.6 174.1 213.8Q175.9 213.1 178.4 213.1L178.4 213.1Q182.2 213.1 184.3 214.7Q186.4 216.3 186.8 219.0Z M206.6 233L206.6 233L197.3 233L197.3 206.8L206.7 206.8Q210.7 206.8 213.5 208.4Q216.4 210.0 217.9 212.9Q219.4 215.8 219.4 219.9L219.4 219.9Q219.4 224.0 217.9 226.9Q216.4 229.9 213.5 231.4Q210.6 233 206.6 233ZM202.9 211.6L202.9 228.3L206.4 228.3Q208.8 228.3 210.5 227.4Q212.2 226.5 213.1 224.7Q213.9 222.8 213.9 219.9L213.9 219.9Q213.9 217.0 213.1 215.1Q212.2 213.3 210.5 212.4Q208.9 211.6 206.4 211.6L206.4 211.6L202.9 211.6ZM228.0 233L222.5 233L222.5 213.4L228.0 213.4L228.0 233ZM225.3 210.8L225.3 210.8Q224.0 210.8 223.2 210.0Q222.3 209.2 222.3 208.1L222.3 208.1Q222.3 206.9 223.2 206.1Q224.0 205.3 225.3 205.3L225.3 205.3Q226.5 205.3 227.3 206.1Q228.2 206.9 228.2 208.1L228.2 208.1Q228.2 209.2 227.3 210.0Q226.5 210.8 225.3 210.8ZM240.3 240.8L240.3 240.8Q237.6 240.8 235.7 240.1Q233.8 239.3 232.7 238.1Q231.6 236.8 231.3 235.3L231.3 235.3L236.3 234.6Q236.6 235.2 237.1 235.7Q237.6 236.2 238.4 236.5Q239.2 236.9 240.4 236.9L240.4 236.9Q242.2 236.9 243.3 236.0Q244.5 235.1 244.5 233.1L244.5 233.1L244.5 229.5L244.2 229.5Q243.9 230.3 243.2 231.1Q242.5 231.8 241.3 232.3Q240.2 232.7 238.6 232.7L238.6 232.7Q236.4 232.7 234.6 231.7Q232.8 230.7 231.8 228.5Q230.7 226.4 230.7 223.1L230.7 223.1Q230.7 219.8 231.8 217.6Q232.9 215.3 234.7 214.2Q236.5 213.1 238.6 213.1L238.6 213.1Q240.3 213.1 241.4 213.7Q242.5 214.2 243.2 215.0Q243.9 215.9 244.2 216.7L244.2 216.7L244.5 216.7L244.5 213.4L249.9 213.4L249.9 233.2Q249.9 235.7 248.6 237.4Q247.4 239.1 245.2 239.9Q243.1 240.8 240.3 240.8ZM240.4 228.6L240.4 228.6Q241.7 228.6 242.6 228.0Q243.5 227.3 244.0 226.1Q244.5 224.8 244.5 223.1L244.5 223.1Q244.5 221.4 244.0 220.1Q243.5 218.8 242.6 218.1Q241.7 217.4 240.4 217.4L240.4 217.4Q239.0 217.4 238.1 218.2Q237.2 218.9 236.7 220.2Q236.2 221.4 236.2 223.1L236.2 223.1Q236.2 224.8 236.7 226.1Q237.2 227.3 238.1 228.0Q239.0 228.6 240.4 228.6ZM258.8 233L253.3 233L253.3 213.4L258.8 213.4L258.8 233ZM256.0 210.8L256.0 210.8Q254.8 210.8 254.0 210.0Q253.1 209.2 253.1 208.1L253.1 208.1Q253.1 206.9 254.0 206.1Q254.8 205.3 256.0 205.3L256.0 205.3Q257.3 205.3 258.1 206.1Q259.0 206.9 259.0 208.1L259.0 208.1Q259.0 209.2 258.1 210.0Q257.3 210.8 256.0 210.8ZM260.8 213.4L272.6 213.4L272.6 217.5L260.8 217.5L260.8 213.4ZM263.5 227.7L263.5 208.7L269.0 208.7L269.0 227.0Q269.0 227.7 269.2 228.1Q269.4 228.6 269.8 228.7Q270.2 228.9 270.8 228.9L270.8 228.9Q271.2 228.9 271.6 228.8Q271.9 228.7 272.1 228.7L272.1 228.7L273.0 232.8Q272.6 232.9 271.9 233.1Q271.1 233.2 270.1 233.3L270.1 233.3Q268.1 233.3 266.6 232.7Q265.1 232.1 264.3 230.9Q263.5 229.6 263.5 227.7L263.5 227.7ZM280.9 233.4L280.9 233.4Q279.0 233.4 277.5 232.7Q276.1 232.1 275.2 230.8Q274.4 229.5 274.4 227.5L274.4 227.5Q274.4 225.9 275.0 224.8Q275.6 223.7 276.6 223.0Q277.6 222.3 279.0 222.0Q280.3 221.6 281.7 221.5L281.7 221.5Q283.5 221.3 284.5 221.1Q285.6 221.0 286.0 220.7Q286.5 220.3 286.5 219.7L286.5 219.7L286.5 219.6Q286.5 218.4 285.7 217.7Q285.0 217.1 283.6 217.1L283.6 217.1Q282.1 217.1 281.2 217.7Q280.4 218.4 280.1 219.3L280.1 219.3L275.1 218.9Q275.4 217.1 276.6 215.8Q277.7 214.5 279.5 213.8Q281.3 213.1 283.6 213.1L283.6 213.1Q285.2 213.1 286.7 213.5Q288.2 213.9 289.4 214.7Q290.6 215.5 291.3 216.7Q291.9 218.0 291.9 219.8L291.9 219.8L291.9 233L286.8 233L286.8 230.3L286.6 230.3Q286.2 231.2 285.4 231.9Q284.6 232.6 283.5 233.0Q282.3 233.4 280.9 233.4ZM282.4 229.6L282.4 229.6Q283.6 229.6 284.6 229.1Q285.5 228.7 286.0 227.8Q286.5 227.0 286.5 226.0L286.5 226.0L286.5 223.9Q286.3 224.1 285.8 224.2Q285.4 224.3 284.8 224.4Q284.3 224.5 283.7 224.6Q283.2 224.7 282.8 224.8L282.8 224.8Q281.8 224.9 281.1 225.2Q280.4 225.5 280.0 226.1Q279.6 226.6 279.6 227.3L279.6 227.3Q279.6 228.4 280.4 229.0Q281.2 229.6 282.4 229.6ZM300.7 233L295.3 233L295.3 213.4L300.7 213.4L300.7 233ZM298.0 210.8L298.0 210.8Q296.8 210.8 295.9 210.0Q295.1 209.2 295.1 208.1L295.1 208.1Q295.1 206.9 295.9 206.1Q296.8 205.3 298.0 205.3L298.0 205.3Q299.2 205.3 300.1 206.1Q301.0 206.9 301.0 208.1L301.0 208.1Q301.0 209.2 300.1 210.0Q299.2 210.8 298.0 210.8ZM320.5 219.0L320.5 219.0L315.5 219.3Q315.4 218.6 315.0 218.1Q314.5 217.6 313.9 217.3Q313.2 217.0 312.2 217.0L312.2 217.0Q311.0 217.0 310.1 217.5Q309.2 218.0 309.2 218.9L309.2 218.9Q309.2 219.6 309.8 220.1Q310.4 220.6 311.7 220.9L311.7 220.9L315.3 221.6Q318.1 222.2 319.5 223.5Q321.0 224.8 321.0 226.9L321.0 226.9Q321.0 228.8 319.8 230.3Q318.7 231.8 316.7 232.6Q314.8 233.4 312.2 233.4L312.2 233.4Q308.3 233.4 306.0 231.8Q303.7 230.1 303.3 227.3L303.3 227.3L308.7 227.0Q308.9 228.2 309.8 228.8Q310.8 229.5 312.2 229.5L312.2 229.5Q313.7 229.5 314.5 228.9Q315.4 228.3 315.4 227.5L315.4 227.5Q315.4 226.7 314.8 226.2Q314.2 225.8 312.9 225.5L312.9 225.5L309.5 224.8Q306.6 224.3 305.2 222.8Q303.8 221.4 303.8 219.2L303.8 219.2Q303.8 217.3 304.9 216.0Q305.9 214.6 307.8 213.8Q309.6 213.1 312.1 213.1L312.1 213.1Q315.9 213.1 318.0 214.7Q320.1 216.3 320.5 219.0Z M347.3 219.0L347.3 219.0L342.3 219.3Q342.2 218.6 341.7 218.1Q341.3 217.6 340.6 217.3Q340.0 217.0 339.0 217.0L339.0 217.0Q337.7 217.0 336.9 217.5Q336.0 218.0 336.0 218.9L336.0 218.9Q336.0 219.6 336.6 220.1Q337.1 220.6 338.5 220.9L338.5 220.9L342.1 221.6Q344.9 222.2 346.3 223.5Q347.7 224.8 347.7 226.9L347.7 226.9Q347.7 228.8 346.6 230.3Q345.5 231.8 343.5 232.6Q341.5 233.4 339.0 233.4L339.0 233.4Q335.1 233.4 332.8 231.8Q330.5 230.1 330.1 227.3L330.1 227.3L335.4 227.0Q335.7 228.2 336.6 228.8Q337.5 229.5 339.0 229.5L339.0 229.5Q340.4 229.5 341.3 228.9Q342.2 228.3 342.2 227.5L342.2 227.5Q342.2 226.7 341.6 226.2Q341.0 225.8 339.7 225.5L339.7 225.5L336.3 224.8Q333.4 224.3 332.0 222.8Q330.6 221.4 330.6 219.2L330.6 219.2Q330.6 217.3 331.6 216.0Q332.7 214.6 334.5 213.8Q336.4 213.1 338.9 213.1L338.9 213.1Q342.6 213.1 344.8 214.7Q346.9 216.3 347.3 219.0ZM359.1 233.4L359.1 233.4Q356.2 233.4 354.0 232.1Q351.8 230.8 350.6 228.6Q349.5 226.3 349.5 223.3L349.5 223.3Q349.5 220.2 350.6 217.9Q351.8 215.7 354.0 214.4Q356.2 213.1 359.1 213.1L359.1 213.1Q362.1 213.1 364.3 214.4Q366.4 215.7 367.6 217.9Q368.8 220.2 368.8 223.3L368.8 223.3Q368.8 226.3 367.6 228.6Q366.4 230.8 364.3 232.1Q362.1 233.4 359.1 233.4ZM359.2 229.2L359.2 229.2Q360.5 229.2 361.4 228.4Q362.3 227.6 362.8 226.3Q363.3 224.9 363.3 223.2L363.3 223.2Q363.3 221.5 362.8 220.2Q362.3 218.8 361.4 218.0Q360.5 217.3 359.2 217.3L359.2 217.3Q357.8 217.3 356.9 218.0Q355.9 218.8 355.5 220.2Q355.0 221.5 355.0 223.2L355.0 223.2Q355.0 224.9 355.5 226.3Q355.9 227.6 356.9 228.4Q357.8 229.2 359.2 229.2ZM376.9 233L371.6 233L371.6 206.8L377.0 206.8L377.0 216.7L377.2 216.7Q377.5 215.9 378.2 215.0Q378.9 214.2 380.0 213.7Q381.1 213.1 382.8 213.1L382.8 213.1Q384.9 213.1 386.7 214.2Q388.5 215.3 389.6 217.6Q390.7 219.8 390.7 223.2L390.7 223.2Q390.7 226.5 389.7 228.7Q388.6 231.0 386.8 232.2Q385.0 233.3 382.7 233.3L382.7 233.3Q381.2 233.3 380.1 232.8Q378.9 232.3 378.2 231.5Q377.5 230.7 377.2 229.9L377.2 229.9L376.9 229.9L376.9 233ZM376.9 223.2L376.9 223.2Q376.9 224.9 377.4 226.2Q377.9 227.5 378.8 228.3Q379.7 229.0 381.0 229.0L381.0 229.0Q382.3 229.0 383.3 228.3Q384.2 227.5 384.7 226.2Q385.1 224.9 385.1 223.2L385.1 223.2Q385.1 221.5 384.7 220.2Q384.2 218.9 383.3 218.2Q382.4 217.4 381.0 217.4L381.0 217.4Q379.7 217.4 378.8 218.1Q377.9 218.8 377.4 220.1Q376.9 221.4 376.9 223.2Z M401.0 233L401.0 206.8L407.8 206.8L415.0 224.4L415.3 224.4L422.5 206.8L429.4 206.8L429.4 233L424.0 233L424.0 216.0L423.8 216.0L417.0 232.9L413.3 232.9L406.6 215.9L406.3 215.9L406.3 233L401.0 233ZM441.9 233.4L441.9 233.4Q438.8 233.4 436.6 232.1Q434.5 230.9 433.3 228.6Q432.1 226.4 432.1 223.3L432.1 223.3Q432.1 220.2 433.3 218.0Q434.5 215.7 436.6 214.4Q438.7 213.1 441.6 213.1L441.6 213.1Q443.6 213.1 445.3 213.7Q446.9 214.3 448.2 215.6Q449.5 216.8 450.2 218.7Q450.9 220.6 450.9 223.1L450.9 223.1L450.9 224.6L434.3 224.6L434.3 221.2L445.7 221.2Q445.7 220.0 445.2 219.1Q444.7 218.2 443.8 217.7Q442.9 217.2 441.7 217.2L441.7 217.2Q440.5 217.2 439.5 217.7Q438.6 218.3 438.0 219.3Q437.5 220.2 437.5 221.4L437.5 221.4L437.5 224.6Q437.5 226.0 438.0 227.1Q438.6 228.2 439.6 228.7Q440.6 229.3 441.9 229.3L441.9 229.3Q442.9 229.3 443.6 229.1Q444.4 228.8 444.9 228.3Q445.4 227.8 445.7 227.0L445.7 227.0L450.8 227.4Q450.4 229.2 449.2 230.5Q448.0 231.9 446.1 232.6Q444.3 233.4 441.9 233.4ZM460.8 233.3L460.8 233.3Q458.5 233.3 456.7 232.2Q454.9 231.0 453.8 228.7Q452.8 226.5 452.8 223.2L452.8 223.2Q452.8 219.8 453.9 217.6Q455.0 215.3 456.8 214.2Q458.6 213.1 460.7 213.1L460.7 213.1Q462.4 213.1 463.5 213.7Q464.6 214.2 465.3 215.0Q466.0 215.9 466.3 216.7L466.3 216.7L466.5 216.7L466.5 206.8L471.9 206.8L471.9 233L466.6 233L466.6 229.9L466.3 229.9Q465.9 230.7 465.3 231.5Q464.6 232.3 463.4 232.8Q462.3 233.3 460.8 233.3ZM462.5 229.0L462.5 229.0Q463.8 229.0 464.7 228.3Q465.6 227.5 466.1 226.2Q466.6 224.9 466.6 223.2L466.6 223.2Q466.6 221.4 466.1 220.1Q465.6 218.8 464.7 218.1Q463.8 217.4 462.5 217.4L462.5 217.4Q461.1 217.4 460.2 218.2Q459.3 218.9 458.8 220.2Q458.4 221.5 458.4 223.2L458.4 223.2Q458.4 224.9 458.8 226.2Q459.3 227.5 460.2 228.3Q461.1 229.0 462.5 229.0ZM480.9 233L475.5 233L475.5 213.4L480.9 213.4L480.9 233ZM478.2 210.8L478.2 210.8Q477.0 210.8 476.2 210.0Q475.3 209.2 475.3 208.1L475.3 208.1Q475.3 206.9 476.2 206.1Q477.0 205.3 478.2 205.3L478.2 205.3Q479.4 205.3 480.3 206.1Q481.2 206.9 481.2 208.1L481.2 208.1Q481.2 209.2 480.3 210.0Q479.4 210.8 478.2 210.8ZM491.6 233.3L491.6 233.3Q489.4 233.3 487.6 232.2Q485.8 231.0 484.7 228.7Q483.7 226.5 483.7 223.2L483.7 223.2Q483.7 219.8 484.7 217.6Q485.8 215.3 487.6 214.2Q489.4 213.1 491.6 213.1L491.6 213.1Q493.3 213.1 494.4 213.7Q495.5 214.2 496.2 215.0Q496.8 215.9 497.2 216.7L497.2 216.7L497.4 216.7L497.4 206.8L502.8 206.8L502.8 233L497.4 233L497.4 229.9L497.2 229.9Q496.8 230.7 496.1 231.5Q495.4 232.3 494.3 232.8Q493.2 233.3 491.6 233.3ZM493.3 229.0L493.3 229.0Q494.7 229.0 495.6 228.3Q496.5 227.5 497.0 226.2Q497.5 224.9 497.5 223.2L497.5 223.2Q497.5 221.4 497.0 220.1Q496.5 218.8 495.6 218.1Q494.7 217.4 493.3 217.4L493.3 217.4Q492.0 217.4 491.1 218.2Q490.2 218.9 489.7 220.2Q489.2 221.5 489.2 223.2L489.2 223.2Q489.2 224.9 489.7 226.2Q490.2 227.5 491.1 228.3Q492.0 229.0 493.3 229.0ZM512.0 233.4L512.0 233.4Q510.1 233.4 508.6 232.7Q507.1 232.1 506.3 230.8Q505.4 229.5 505.4 227.5L505.4 227.5Q505.4 225.9 506.0 224.8Q506.6 223.7 507.7 223.0Q508.7 222.3 510.0 222.0Q511.4 221.6 512.8 221.5L512.8 221.5Q514.5 221.3 515.6 221.1Q516.6 221.0 517.1 220.7Q517.6 220.3 517.6 219.7L517.6 219.7L517.6 219.6Q517.6 218.4 516.8 217.7Q516.0 217.1 514.7 217.1L514.7 217.1Q513.2 217.1 512.3 217.7Q511.4 218.4 511.2 219.3L511.2 219.3L506.1 218.9Q506.5 217.1 507.6 215.8Q508.8 214.5 510.5 213.8Q512.3 213.1 514.7 213.1L514.7 213.1Q516.3 213.1 517.8 213.5Q519.3 213.9 520.5 214.7Q521.7 215.5 522.3 216.7Q523.0 218.0 523.0 219.8L523.0 219.8L523.0 233L517.8 233L517.8 230.3L517.7 230.3Q517.2 231.2 516.4 231.9Q515.6 232.6 514.5 233.0Q513.4 233.4 512.0 233.4ZM513.5 229.6L513.5 229.6Q514.7 229.6 515.6 229.1Q516.6 228.7 517.1 227.8Q517.6 227.0 517.6 226.0L517.6 226.0L517.6 223.9Q517.4 224.1 516.9 224.2Q516.5 224.3 515.9 224.4Q515.4 224.5 514.8 224.6Q514.3 224.7 513.8 224.8L513.8 224.8Q512.9 224.9 512.1 225.2Q511.4 225.5 511.0 226.1Q510.6 226.6 510.6 227.3L510.6 227.3Q510.6 228.4 511.5 229.0Q512.3 229.6 513.5 229.6ZM529.5 233.3L529.5 233.3Q528.3 233.3 527.4 232.4Q526.5 231.5 526.5 230.3L526.5 230.3Q526.5 229.0 527.4 228.1Q528.3 227.2 529.5 227.2L529.5 227.2Q530.8 227.2 531.7 228.1Q532.6 229.0 532.6 230.3L532.6 230.3Q532.6 231.1 532.2 231.8Q531.7 232.5 531.1 232.9Q530.4 233.3 529.5 233.3Z "/></g><mask id="satori_om-id-0-0-1"><rect x="595" y="175" width="173" height="50" fill="#fff"/></mask><mask id="satori_ms-id-0-0-1-0-1" maskUnits="userSpaceOnUse"><rect x="0" y="0" width="800" height="400" fill="#fff"/><path x="595" y="175" width="173" height="50" fill="#000"  stroke-width="-2" d="M601,175 h161 a6,6 0 0 1 6,6 v38 a6,6 0 0 1 -6,6 h-161 a6,6 0 0 1 -6,-6 v-38 a6,6 0 0 1 6,-6"/></mask><mask id="satori_ms-id-0-0-1-0-1-neg" maskUnits="userSpaceOnUse"><path x="595" y="176" width="173" height="50" fill="#fff" stroke="#000" stroke-width="2" d="M601,176 h161 a6,6 0 0 1 6,6 v38 a6,6 0 0 1 -6,6 h-161 a6,6 0 0 1 -6,-6 v-38 a6,6 0 0 1 6,-6"/></mask><defs><filter id="satori_s-id-0-0-1-0-1" x="0%" y="0%" width="100%" height="100%"><feGaussianBlur stdDeviation="1" result="b"/><feFlood flood-color="rgba(0, 0, 0, 0.1)" in="SourceGraphic" result="f"/><feComposite in="f" in2="b" operator="in"/></filter></defs><g mask="url(#satori_ms-id-0-0-1-0-1)" filter="url(#satori_s-id-0-0-1-0-1)" opacity="1"><g mask="url(#satori_ms-id-0-0-1-0-1-neg)"><path x="595" y="176" width="173" height="50" fill="#fff" stroke="#fff" stroke-width="-2" d="M601,176 h161 a6,6 0 0 1 6,6 v38 a6,6 0 0 1 -6,6 h-161 a6,6 0 0 1 -6,-6 v-38 a6,6 0 0 1 6,-6"/></g></g><mask id="satori_ms-id-0-0-1-0-0" maskUnits="userSpaceOnUse"><rect x="0" y="0" width="800" height="400" fill="#fff"/><path x="595" y="175" width="173" height="50" fill="#000"  stroke-width="0" d="M601,175 h161 a6,6 0 0 1 6,6 v38 a6,6 0 0 1 -6,6 h-161 a6,6 0 0 1 -6,-6 v-38 a6,6 0 0 1 6,-6"/></mask><defs><filter id="satori_s-id-0-0-1-0-0" x="-1.300578034682081%" y="-4.5%" width="102.60115606936415%" height="109.00000000000001%"><feGaussianBlur stdDeviation="1.5" result="b"/><feFlood flood-color="rgba(0, 0, 0, 0.1)" in="SourceGraphic" result="f"/><feComposite in="f" in2="b" operator="in"/></filter></defs><g mask="url(#satori_ms-id-0-0-1-0-0)" filter="url(#satori_s-id-0-0-1-0-0)" opacity="1"><path x="595" y="176" width="173" height="50" fill="#fff" stroke="#fff" stroke-width="0" d="M601,176 h161 a6,6 0 0 1 6,6 v38 a6,6 0 0 1 -6,6 h-161 a6,6 0 0 1 -6,-6 v-38 a6,6 0 0 1 6,-6"/></g><mask id="satori_om-id-0-0-1-0"><rect x="595" y="175" width="173" height="50" fill="#fff"/></mask><defs><clipPath id="satori_bc-id-0-0-1-0-0"><path x="595" y="175" width="173" height="50" d="M601,175 h161 a6,6 0 0 1 6,6 v38 a6,6 0 0 1 -6,6 h-161 a6,6 0 0 1 -6,-6 v-38 a6,6 0 0 1 6,-6"/></clipPath></defs><mask id="satori_om-id-0-0-1-0-0"><rect x="596" y="176" width="171" height="48" fill="#fff"/><path width="173" height="50" fill="none" stroke="#000" stroke-width="2" d="M596.757,176.757 A6,6 0 0 1 601,175 h161 a6,6 0 0 1 6,6 v38 a6,6 0 0 1 -6,6 h-161 a6,6 0 0 1 -6,-6 v-38 A6,6 0 0 1 596.757,176.757"/></mask><path x="595" y="175" width="173" height="50" fill="#3B82F6" d="M601,175 h161 a6,6 0 0 1 6,6 v38 a6,6 0 0 1 -6,6 h-161 a6,6 0 0 1 -6,-6 v-38 a6,6 0 0 1 6,-6"/><path width="173" height="50" clip-path="url(#satori_bc-id-0-0-1-0-0)" fill="none" stroke="transparent" stroke-width="2" d="M596.757,176.757 A6,6 0 0 1 601,175 h161 a6,6 0 0 1 6,6 v38 a6,6 0 0 1 -6,6 h-161 a6,6 0 0 1 -6,-6 v-38 A6,6 0 0 1 596.757,176.757"/><g  ><path fill="#fff" d="M624.5 206L617.4 206L617.4 194.4L624.4 194.4L624.4 195.6L618.8 195.6L618.8 199.5L624.1 199.5L624.1 200.8L618.8 200.8L618.8 204.8L624.5 204.8L624.5 206ZM628.1 200.8L628.1 200.8L628.1 206L626.8 206L626.8 197.3L628.1 197.3L628.1 198.6L628.2 198.6Q628.5 198.0 629.1 197.6Q629.8 197.2 630.8 197.2L630.8 197.2Q631.6 197.2 632.3 197.5Q633.0 197.9 633.3 198.6Q633.7 199.3 633.7 200.5L633.7 200.5L633.7 206L632.4 206L632.4 200.5Q632.4 199.5 631.8 198.9Q631.3 198.4 630.4 198.4L630.4 198.4Q629.7 198.4 629.2 198.6Q628.7 198.9 628.4 199.5Q628.1 200.0 628.1 200.8ZM635.4 197.3L640.0 197.3L640.0 198.4L635.4 198.4L635.4 197.3ZM636.8 203.9L636.8 195.2L638.1 195.2L638.1 203.5Q638.1 204.1 638.3 204.3Q638.4 204.6 638.7 204.7Q639.0 204.8 639.3 204.8L639.3 204.8Q639.5 204.8 639.6 204.8Q639.8 204.8 639.8 204.8L639.8 204.8L640.1 206.0Q640.0 206.0 639.7 206.1Q639.5 206.1 639.1 206.1L639.1 206.1Q638.5 206.1 638.0 205.9Q637.5 205.6 637.1 205.1Q636.8 204.6 636.8 203.9L636.8 203.9ZM643.3 206L642.0 206L642.0 197.3L643.3 197.3L643.3 198.6L643.4 198.6Q643.6 197.9 644.2 197.5Q644.9 197.1 645.6 197.1L645.6 197.1Q645.8 197.1 646.0 197.1Q646.2 197.1 646.3 197.2L646.3 197.2L646.3 198.5Q646.3 198.5 646.0 198.5Q645.8 198.4 645.5 198.4L645.5 198.4Q644.9 198.4 644.4 198.7Q643.9 199.0 643.6 199.4Q643.3 199.9 643.3 200.5L643.3 200.5L643.3 206ZM651.3 206.2L651.3 206.2Q650.1 206.2 649.1 205.6Q648.2 205.1 647.7 204.1Q647.3 203.0 647.3 201.7L647.3 201.7Q647.3 200.4 647.7 199.3Q648.2 198.3 649.1 197.7Q650.0 197.2 651.2 197.2L651.2 197.2Q651.9 197.2 652.5 197.4Q653.2 197.6 653.7 198.1Q654.3 198.6 654.6 199.5Q654.9 200.3 654.9 201.5L654.9 201.5L654.9 202.1L648.2 202.1L648.2 200.9L653.6 200.9Q653.6 200.2 653.3 199.6Q653.0 199.0 652.4 198.7Q651.9 198.4 651.2 198.4L651.2 198.4Q650.4 198.4 649.8 198.8Q649.2 199.2 648.9 199.8Q648.6 200.4 648.6 201.1L648.6 201.1L648.6 201.9Q648.6 202.9 648.9 203.6Q649.3 204.3 649.9 204.6Q650.5 205.0 651.3 205.0L651.3 205.0Q651.8 205.0 652.3 204.8Q652.7 204.7 653.0 204.4Q653.3 204.1 653.5 203.6L653.5 203.6L654.8 204.0Q654.6 204.6 654.1 205.1Q653.6 205.6 652.9 205.9Q652.2 206.2 651.3 206.2Z M665.4 206.2L665.4 206.2Q664.1 206.2 663.2 205.6Q662.3 205.1 661.8 204.1Q661.3 203.0 661.3 201.7L661.3 201.7Q661.3 200.4 661.8 199.3Q662.3 198.3 663.2 197.7Q664.1 197.2 665.3 197.2L665.3 197.2Q666.0 197.2 666.6 197.4Q667.3 197.6 667.8 198.1Q668.4 198.6 668.7 199.5Q669.0 200.3 669.0 201.5L669.0 201.5L669.0 202.1L662.3 202.1L662.3 200.9L667.7 200.9Q667.7 200.2 667.4 199.6Q667.1 199.0 666.5 198.7Q666 198.4 665.3 198.4L665.3 198.4Q664.5 198.4 663.9 198.8Q663.3 199.2 663.0 199.8Q662.7 200.4 662.7 201.1L662.7 201.1L662.7 201.9Q662.7 202.9 663.0 203.6Q663.4 204.3 664.0 204.6Q664.6 205.0 665.4 205.0L665.4 205.0Q665.9 205.0 666.4 204.8Q666.8 204.7 667.1 204.4Q667.4 204.1 667.6 203.6L667.6 203.6L668.9 204.0Q668.7 204.6 668.2 205.1Q667.7 205.6 667.0 205.9Q666.3 206.2 665.4 206.2ZM672.4 206L671.1 206L671.1 197.3L672.4 197.3L672.4 198.6L672.5 198.6Q672.8 197.9 673.4 197.5Q674.0 197.2 674.8 197.2L674.8 197.2Q675.7 197.2 676.3 197.5Q676.8 197.9 677.2 198.6L677.2 198.6L677.3 198.6Q677.6 198.0 678.3 197.6Q678.9 197.2 679.9 197.2L679.9 197.2Q681.0 197.2 681.8 197.9Q682.5 198.6 682.5 200.2L682.5 200.2L682.5 206L681.2 206L681.2 200.2Q681.2 199.2 680.7 198.8Q680.1 198.4 679.4 198.4L679.4 198.4Q678.5 198.4 678.0 198.9Q677.5 199.5 677.5 200.3L677.5 200.3L677.5 206L676.1 206L676.1 200.0Q676.1 199.3 675.6 198.8Q675.1 198.4 674.4 198.4L674.4 198.4Q673.9 198.4 673.4 198.6Q673.0 198.9 672.7 199.4Q672.4 199.9 672.4 200.5L672.4 200.5L672.4 206Z M693.0 206.2L693.0 206.2Q691.8 206.2 690.9 205.6Q690.0 205.0 689.5 204.0Q689.1 203.0 689.1 201.7L689.1 201.7Q689.1 200.4 689.6 199.3Q690.1 198.3 690.9 197.7Q691.8 197.2 693 197.2L693 197.2Q693.9 197.2 694.7 197.5Q695.4 197.8 695.9 198.5Q696.3 199.1 696.5 199.9L696.5 199.9L695.1 199.9Q695.0 199.3 694.4 198.8Q693.9 198.4 693.0 198.4L693.0 198.4Q692.2 198.4 691.7 198.8Q691.1 199.2 690.7 199.9Q690.4 200.6 690.4 201.6L690.4 201.6Q690.4 202.6 690.7 203.4Q691.1 204.1 691.6 204.6Q692.2 205.0 693.0 205.0L693.0 205.0Q693.5 205.0 694.0 204.8Q694.4 204.6 694.7 204.3Q695.0 203.9 695.1 203.5L695.1 203.5L696.5 203.5Q696.3 204.2 695.9 204.8Q695.4 205.5 694.7 205.8Q694.0 206.2 693.0 206.2ZM702.0 206.2L702.0 206.2Q700.8 206.2 699.9 205.6Q699.0 205.1 698.5 204.0Q698 203.0 698 201.7L698 201.7Q698 200.3 698.5 199.3Q699.0 198.3 699.9 197.7Q700.8 197.2 702.0 197.2L702.0 197.2Q703.1 197.2 704.0 197.7Q704.9 198.3 705.4 199.3Q705.9 200.3 705.9 201.7L705.9 201.7Q705.9 203.0 705.4 204.0Q704.9 205.1 704.0 205.6Q703.1 206.2 702.0 206.2ZM702.0 205.0L702.0 205.0Q702.9 205.0 703.4 204.5Q704.0 204.1 704.3 203.3Q704.6 202.6 704.6 201.7L704.6 201.7Q704.6 200.8 704.3 200.1Q704.0 199.3 703.4 198.8Q702.9 198.4 702.0 198.4L702.0 198.4Q701.1 198.4 700.5 198.8Q699.9 199.3 699.6 200.1Q699.3 200.8 699.3 201.7L699.3 201.7Q699.3 202.6 699.6 203.3Q699.9 204.1 700.5 204.5Q701.1 205.0 702.0 205.0ZM709.3 200.8L709.3 200.8L709.3 206L708.0 206L708.0 197.3L709.2 197.3L709.2 198.6L709.4 198.6Q709.7 198.0 710.3 197.6Q710.9 197.2 711.9 197.2L711.9 197.2Q712.8 197.2 713.5 197.5Q714.1 197.9 714.5 198.6Q714.9 199.3 714.9 200.5L714.9 200.5L714.9 206L713.5 206L713.5 200.5Q713.5 199.5 713.0 198.9Q712.5 198.4 711.5 198.4L711.5 198.4Q710.9 198.4 710.4 198.6Q709.9 198.9 709.6 199.5Q709.3 200.0 709.3 200.8ZM716.6 197.3L721.1 197.3L721.1 198.4L716.6 198.4L716.6 197.3ZM717.9 203.9L717.9 195.2L719.2 195.2L719.2 203.5Q719.2 204.1 719.4 204.3Q719.6 204.6 719.8 204.7Q720.1 204.8 720.4 204.8L720.4 204.8Q720.6 204.8 720.8 204.8Q720.9 204.8 721.0 204.8L721.0 204.8L721.3 206.0Q721.1 206.0 720.9 206.1Q720.6 206.1 720.3 206.1L720.3 206.1Q719.7 206.1 719.2 205.9Q718.6 205.6 718.3 205.1Q717.9 204.6 717.9 203.9L717.9 203.9ZM725.7 206.2L725.7 206.2Q724.9 206.2 724.2 205.9Q723.5 205.6 723.1 205.0Q722.7 204.4 722.7 203.5L722.7 203.5Q722.7 202.8 723.0 202.3Q723.3 201.8 723.8 201.6Q724.3 201.3 724.9 201.2Q725.5 201.0 726.1 201.0L726.1 201.0Q726.9 200.9 727.4 200.8Q727.9 200.7 728.1 200.6Q728.4 200.5 728.4 200.2L728.4 200.2L728.4 200.1Q728.4 199.3 727.9 198.8Q727.4 198.3 726.5 198.3L726.5 198.3Q725.6 198.3 725.0 198.8Q724.5 199.2 724.3 199.7L724.3 199.7L723.0 199.2Q723.3 198.4 723.9 198.0Q724.5 197.5 725.1 197.3Q725.8 197.2 726.5 197.2L726.5 197.2Q726.9 197.2 727.4 197.3Q728.0 197.4 728.5 197.7Q729.0 198.0 729.4 198.6Q729.7 199.2 729.7 200.3L729.7 200.3L729.7 206L728.4 206L728.4 204.8L728.3 204.8Q728.2 205.1 727.8 205.4Q727.5 205.8 727.0 206.0Q726.5 206.2 725.7 206.2ZM725.9 205L725.9 205Q726.7 205 727.3 204.7Q727.8 204.4 728.1 203.9Q728.4 203.4 728.4 202.8L728.4 202.8L728.4 201.6Q728.3 201.7 728.0 201.8Q727.7 201.9 727.3 201.9Q727.0 202 726.6 202.0Q726.3 202.1 726.0 202.1L726.0 202.1Q725.5 202.2 725.1 202.3Q724.6 202.5 724.3 202.8Q724.1 203.1 724.1 203.6L724.1 203.6Q724.1 204.3 724.6 204.6Q725.1 205 725.9 205ZM731.4 197.3L736.0 197.3L736.0 198.4L731.4 198.4L731.4 197.3ZM732.8 203.9L732.8 195.2L734.1 195.2L734.1 203.5Q734.1 204.1 734.3 204.3Q734.4 204.6 734.7 204.7Q735.0 204.8 735.3 204.8L735.3 204.8Q735.5 204.8 735.6 204.8Q735.8 204.8 735.8 204.8L735.8 204.8L736.1 206.0Q736.0 206.0 735.7 206.1Q735.5 206.1 735.1 206.1L735.1 206.1Q734.5 206.1 734.0 205.9Q733.5 205.6 733.1 205.1Q732.8 204.6 732.8 203.9L732.8 203.9ZM741.4 206.2L741.4 206.2Q740.3 206.2 739.4 205.6Q738.5 205.1 738.0 204.0Q737.5 203.0 737.5 201.7L737.5 201.7Q737.5 200.3 738.0 199.3Q738.5 198.3 739.4 197.7Q740.3 197.2 741.4 197.2L741.4 197.2Q742.6 197.2 743.5 197.7Q744.4 198.3 744.9 199.3Q745.4 200.3 745.4 201.7L745.4 201.7Q745.4 203.0 744.9 204.0Q744.4 205.1 743.5 205.6Q742.6 206.2 741.4 206.2ZM741.4 205.0L741.4 205.0Q742.3 205.0 742.9 204.5Q743.5 204.1 743.8 203.3Q744.0 202.6 744.0 201.7L744.0 201.7Q744.0 200.8 743.8 200.1Q743.5 199.3 742.9 198.8Q742.3 198.4 741.4 198.4L741.4 198.4Q740.5 198.4 740.0 198.8Q739.4 199.3 739.1 200.1Q738.8 200.8 738.8 201.7L738.8 201.7Q738.8 202.6 739.1 203.3Q739.4 204.1 740.0 204.5Q740.5 205.0 741.4 205.0Z "/></g></svg>