<svg width="40" height="40" viewBox="0 0 40 40" fill="none" xmlns="http://www.w3.org/2000/svg">
<path d="M4.16663 20C4.16663 12.5361 4.16663 8.8041 6.48536 6.48536C8.8041 4.16663 12.5361 4.16663 20 4.16663C27.4639 4.16663 31.1958 4.16663 33.5146 6.48536C35.8333 8.8041 35.8333 12.5361 35.8333 20C35.8333 27.4639 35.8333 31.1958 33.5146 33.5146C31.1958 35.8333 27.4639 35.8333 20 35.8333C12.5361 35.8333 8.8041 35.8333 6.48536 33.5146C4.16663 31.1958 4.16663 27.4639 4.16663 20Z" stroke="#3B82F6" stroke-width="1.5"/>
<path d="M4.16663 15H35.8333" stroke="#3B82F6" stroke-width="1.5" stroke-linejoin="round"/>
<path d="M21.6666 21.6666H28.3333" stroke="#3B82F6" stroke-width="1.5" stroke-linecap="round" stroke-linejoin="round"/>
<path d="M21.6666 28.3334H25" stroke="#3B82F6" stroke-width="1.5" stroke-linecap="round" stroke-linejoin="round"/>
<path d="M11.6663 10H11.6813" stroke="#3B82F6" stroke-width="2" stroke-linecap="round" stroke-linejoin="round"/>
<path d="M18.3331 10H18.348" stroke="#3B82F6" stroke-width="2" stroke-linecap="round" stroke-linejoin="round"/>
<path d="M15 15V35.8333" stroke="#3B82F6" stroke-width="1.5" stroke-linecap="round" stroke-linejoin="round"/>
</svg>
