<svg width="40" height="40" viewBox="0 0 40 40" fill="none" xmlns="http://www.w3.org/2000/svg">
<path d="M23.3335 3.33337H16.6668C11.2014 3.33337 8.46876 3.33337 6.53167 4.68973C5.81501 5.19155 5.19167 5.81489 4.68986 6.53155C3.3335 8.46863 3.3335 11.2013 3.3335 16.6667C3.3335 22.1321 3.3335 24.8648 4.68986 26.8019C5.19167 27.5185 5.81501 28.1419 6.53167 28.6437C8.46876 30 11.2014 30 16.6668 30H23.3335C28.7989 30 31.5316 30 33.4687 28.6437C34.1853 28.1419 34.8087 27.5185 35.3105 26.8019C36.6668 24.8648 36.6668 22.1321 36.6668 16.6667C36.6668 11.2013 36.6668 8.46863 35.3105 6.53155C34.8087 5.81489 34.1853 5.19155 33.4687 4.68973C31.5316 3.33337 28.7989 3.33337 23.3335 3.33337Z" stroke="#3B82F6" stroke-width="1.5" stroke-linecap="round"/>
<path d="M26.6667 13.3334L28.7109 15.0954C29.5703 15.8361 30 16.2065 30 16.6667C30 17.1269 29.5703 17.4973 28.7109 18.2381L26.6667 20" stroke="#3B82F6" stroke-width="1.5" stroke-linecap="round" stroke-linejoin="round"/>
<path d="M13.3333 13.3334L11.2891 15.0954C10.4297 15.8361 10 16.2065 10 16.6667C10 17.1269 10.4297 17.4973 11.2891 18.2381L13.3333 20" stroke="#3B82F6" stroke-width="1.5" stroke-linecap="round" stroke-linejoin="round"/>
<path d="M21.6668 11.6666L18.3335 21.6666" stroke="#3B82F6" stroke-width="1.5" stroke-linecap="round" stroke-linejoin="round"/>
<path d="M24.4263 36.6667L23.7282 35.9686C22.1545 34.3948 21.7643 31.9906 22.7596 30" stroke="#3B82F6" stroke-width="1.5" stroke-linecap="round"/>
<path d="M15.0009 36.6667L15.699 35.9686C17.2728 34.3948 17.6629 31.9906 16.6676 30" stroke="#3B82F6" stroke-width="1.5" stroke-linecap="round"/>
<path d="M11.6667 36.6666H28.3334" stroke="#3B82F6" stroke-width="1.5" stroke-linecap="round"/>
</svg>
