<svg width="605" height="102" viewBox="0 0 605 102" fill="none" xmlns="http://www.w3.org/2000/svg">
<path d="M301.411 70C300.772 73.8328 294.156 77.0336 294.156 86.3764C294.156 94.8253 298.808 97.4016 299.766 97.8011C301.523 95.9641 301.251 80.78 301.411 70ZM300.784 101.308C300.784 100.869 300.784 98.2342 300.784 98.2342C303.1 97.1962 301.761 78.8266 301.642 72.079C302.457 74.2395 307.811 79.6686 307.811 86.3764C307.811 93.0842 304.856 96.1983 302.301 98.0346V101.169C302.227 102.336 300.879 102.172 300.784 101.308Z" fill="#627683"/>
<path fill-rule="evenodd" clip-rule="evenodd" d="M118.008 99.0234L132.054 84.9774L146.008 99.0234H118.008Z" fill="#78909C"/>
<path fill-rule="evenodd" clip-rule="evenodd" d="M118.008 71.0234H132.054L118.008 86.1894V71.0234Z" fill="#78909C"/>
<path fill-rule="evenodd" clip-rule="evenodd" d="M132.39 71.0234L145.602 71L131.648 84.9533L118 98.625L118.008 86.559L132.39 71.0234Z" fill="#78909C"/>
<g clip-path="url(#clip0_84_132)">
<path d="M204.656 97.2367C190.575 81.9611 211.426 60.2305 227.458 74.8714C227.688 74.7828 228.466 73.4152 229.169 72.0854C231.438 78.6919 232.529 84.0892 231.75 88.5002C229.385 101.874 214.504 105.444 206.124 98.5496C207.059 98.4842 207.463 98.0358 207.659 97.5583C207.933 96.8901 207.659 96.185 207.323 95.8963C206.247 94.9725 205.034 95.6169 204.762 96.5923C204.706 96.7954 204.721 97.1907 204.656 97.2367ZM229.007 73.5688C226.849 77.352 222.309 80.7384 215.77 80.9169C211.58 81.0314 208.903 81.8401 206.796 84.2066C203.792 87.5797 204.208 92.4918 206.786 94.4331C207.051 94.6327 207.409 94.8514 207.715 94.8712C216.812 93.1877 222.907 90.8852 227.275 83.0937C225.791 87.9915 222.353 91.0235 219.623 93.0115C217.156 94.8074 211.306 96.0884 209.469 96.9532C209.401 97.0452 209.489 97.077 209.686 97.0518C213.509 96.5639 217.266 97.3468 221.483 96.9202C230.934 95.9641 234.13 87.7316 229.007 73.5688Z" fill="#78909C"/>
</g>
<g clip-path="url(#clip1_84_132)">
<path d="M379.326 87.0755C379.021 87.5832 378.572 87.9938 378.336 88.5933C377.844 89.6551 378.035 91.9538 377.724 91.9577C377.362 92.1315 376.79 91.0876 376.547 90.4654C375.93 88.8916 375.815 86.3574 376.358 84.546C377.109 82.1562 377.156 82.2812 376.122 81.1561C375.167 79.761 374.712 77.498 374.097 75.8946C373.154 73.7976 370.932 72.0353 372.119 71.2403C372.545 70.8827 373.978 71.5916 375.044 72.2942C375.797 72.7906 376.289 73.3174 376.452 73.3146C378.25 73.2656 378.953 73.3438 381.869 75.0854C384.584 76.9266 386.804 79.5476 388.323 82.6742C388.7 83.984 390.521 88.25 391.762 90.4149C392.082 90.8744 393.319 91.121 393.881 91.3761C395.224 91.8269 395.484 92.0469 397.367 93.501C397.702 93.7539 398.729 94.3084 398.781 94.7655C397.124 94.7172 395.859 94.8824 394.777 95.3724C394.469 95.5117 393.979 95.5153 393.929 95.9291C394.195 96.2188 393.953 96.6406 395.342 98.0034C396.755 99.2708 397.438 99.375 399.158 100.381C400.806 101.523 400.827 101.878 401.183 102V101.95C400.833 101.123 400.853 101.241 400.241 100.583C398.021 97.6042 396.391 97.8085 395.719 96.3844C397.523 95.69 398.458 95.9375 400.147 95.3219V95.1195C399.001 93.3022 395.729 90.6042 392.794 89.6439C390.918 86.0648 390.132 83.5193 389.171 81.46C387.15 77.7953 381.812 71.75 376.97 72.151C376.654 72.009 376.325 71.5933 376.028 71.3921C374.847 70.5904 371.816 68.8468 370.941 71.1392C370.388 72.5862 371.767 73.9982 372.26 74.7312C372.606 75.2456 373.049 75.8223 373.296 76.4007C373.538 77.0276 373.469 77.4922 374.709 80.5493C375.626 82.5323 375.797 81.9504 375.981 82.6742C375.69 83.1113 375.674 83.7899 375.51 84.3437C374.188 88.75 376.262 93.9568 378.289 93.0962C379.328 92.6442 378.979 90.8956 379.405 89.7297C380.01 90.8646 380.198 92.3333 382.953 94.5635C383.442 94.9604 383.967 95.683 384.592 95.9111C383.945 95.4623 383.388 94.7858 382.859 94.0575C382 92.8059 381.242 91.436 380.551 90.0099C379.418 87.7523 379.659 87.3242 379.326 87.0755ZM377.759 76.748C377.438 75.9896 377.314 76.1639 376.974 75.7899C376.633 75.7832 376.384 75.838 376.129 75.8978C376.115 75.9068 376.119 75.9252 376.13 75.9479C376.293 76.3073 376.626 76.5384 376.827 76.848L377.293 77.8979C377.639 77.6501 377.762 77.244 377.759 76.748Z" fill="#78909C"/>
</g>
<path d="M471.309 72.1458C468.5 75.1266 465.891 80.6483 465.08 84.8656C465.468 85.6314 465.859 87.0423 466.024 87.8834C465.854 87.1619 465.389 86.3818 464.872 85.4684L464.371 87.0353C465.016 88.2138 465.408 90.2344 465.408 90.2344C465.235 89.4976 464.762 88.7198 464.183 87.6948C463.893 88.7661 463.777 89.4885 463.882 89.6648C464.555 91.041 465.037 93.9083 465.115 94.7969C465.031 97.4236 465.234 100.157 465.855 102L466.061 101.888C463.688 93.3471 469.06 78.0718 476.124 72.2789C472.184 76.2288 467.401 87.0467 466.22 94.4628C467.109 91.7482 469.98 90.5808 469.98 90.5808C469.98 90.5808 471.389 88.8438 473.035 86.3622C471.343 86.7332 470.052 87.0683 468.872 87.6504C468.872 87.6504 471.463 86.0725 473.686 85.3575C476.743 80.5422 480.074 73.7003 476.72 70.7071C475.15 69.2499 473.09 70.1999 471.309 72.1458Z" fill="#78909C"/>
<path d="M23.262 10.2L23.534 7.138H8.466L9.266 16.482H19.698L19.324 20.482L15.966 21.4L12.626 20.472L12.4 18.03H9.42L9.8 22.896L15.97 24.646H16.034V24.628L22.154 22.896L23 13.376H12.028L11.772 10.2H23.262ZM4 2H28L25.818 27.166L15.966 30L6.182 27.166L4 2Z" fill="#78909C"/>
<g clip-path="url(#clip2_84_132)">
<path d="M358.15 2.21925C347.566 -4.0038 334.118 3.59687 334.001 15.8676C333.886 27.8499 346.567 35.5892 357.127 30.3153L345.598 13.3523L345.598 23.8521C345.598 25.0154 343.371 25.0154 343.371 23.8521V9.7763C343.371 8.85281 345.087 8.77702 345.573 9.57978L358.714 29.4108C368.586 23.0522 368.453 8.27728 358.15 2.21925ZM356.665 22.0904L354.432 18.6794V9.34115C354.432 8.47037 356.665 8.47037 356.665 9.34115V22.0904Z" fill="#78909C"/>
</g>
<path d="M90.57 4H111L107.39 22.328L96.476 26L87 22.328L87.964 17.434H92L91.6 19.456L97.328 21.67L103.928 19.456L104.85 14.8H88.45L89.24 10.71H105.652L106.168 8.084H89.768L90.57 4Z" fill="#78909C"/>
<path d="M188.174 14.2C187.254 14.2447 186.382 14.6197 185.716 15.256C185.4 15.5683 185.153 15.943 184.989 16.3562C184.826 16.7694 184.751 17.2121 184.768 17.656C184.744 18.338 184.915 19.0127 185.261 19.6009C185.607 20.189 186.114 20.6661 186.722 20.976C187.245 21.2695 187.786 21.5293 188.342 21.754C188.99 21.9626 189.592 22.2947 190.114 22.732C190.272 22.9089 190.375 23.1279 190.41 23.3623C190.446 23.5966 190.412 23.8363 190.314 24.052C190.25 24.1665 190.171 24.2716 190.078 24.364C189.886 24.533 189.662 24.6624 189.42 24.7448C189.178 24.8272 188.921 24.8609 188.666 24.844C188.181 24.8561 187.701 24.7387 187.277 24.5039C186.852 24.2691 186.498 23.9253 186.25 23.508C186.2 23.4286 186.142 23.3542 186.078 23.286C186.054 23.286 184.044 24.446 184.002 24.486C183.96 24.526 184.002 24.566 184.1 24.734C184.493 25.3985 185.038 25.9601 185.69 26.3725C186.342 26.785 187.083 27.0364 187.852 27.106C188.417 27.1654 188.987 27.1654 189.552 27.106C190.483 27.0213 191.36 26.6326 192.048 26C192.378 25.6768 192.637 25.2876 192.806 24.858C192.976 24.4283 193.054 23.9676 193.034 23.506C193.05 22.9246 192.929 22.3476 192.68 21.822C192.525 21.4934 192.312 21.1953 192.052 20.942C191.262 20.2305 190.338 19.6832 189.334 19.332C188.715 19.1329 188.141 18.8164 187.642 18.4C187.53 18.2821 187.444 18.1413 187.392 17.9874C187.339 17.8334 187.32 17.6699 187.336 17.508C187.338 17.2614 187.432 17.0244 187.6 16.844C187.726 16.7069 187.881 16.6009 188.055 16.5342C188.228 16.4676 188.415 16.4422 188.6 16.46C188.819 16.4465 189.037 16.4816 189.241 16.5629C189.444 16.6441 189.627 16.7695 189.776 16.93C189.904 17.0578 190.019 17.1978 190.12 17.348C190.153 17.4301 190.21 17.5 190.284 17.548C190.352 17.518 192.272 16.278 192.272 16.26C192.272 16.242 192.174 16.096 192.056 15.916C191.776 15.5072 191.43 15.1476 191.032 14.852C190.426 14.4541 189.724 14.2287 189 14.2C188.725 14.17 188.449 14.17 188.174 14.2ZM179.952 19V23.67L179.894 23.89C179.847 24.1227 179.735 24.3371 179.57 24.508C179.437 24.6261 179.281 24.7152 179.112 24.7697C178.943 24.8241 178.765 24.8426 178.588 24.824C178.248 24.8215 177.917 24.7155 177.638 24.52C177.36 24.3246 177.148 24.049 177.03 23.73C176.986 23.6491 176.935 23.5727 176.876 23.502L175.8 24.138L174.756 24.772L174.836 24.93C175.302 25.8669 176.12 26.5805 177.112 26.914C178.209 27.2582 179.389 27.2301 180.468 26.834C181.051 26.592 181.553 26.1891 181.915 25.6724C182.277 25.1556 182.485 24.5464 182.514 23.916C182.53 23.768 182.54 22.116 182.54 19.012V14.33H179.962L179.952 19ZM192.964 30H171.036C170.231 29.9995 169.459 29.6794 168.89 29.1102C168.321 28.5409 168.001 27.769 168 26.964V5.036C168.001 4.23097 168.321 3.45905 168.89 2.88981C169.459 2.32056 170.231 2.00053 171.036 2H192.964C193.769 2.00053 194.541 2.32056 195.11 2.88981C195.679 3.45905 195.999 4.23097 196 5.036V26.964C195.999 27.769 195.679 28.5409 195.11 29.1102C194.541 29.6794 193.769 29.9995 192.964 30ZM171.036 3.41C170.605 3.41053 170.192 3.58201 169.887 3.88683C169.582 4.19165 169.411 4.60492 169.41 5.036V26.964C169.411 27.3951 169.582 27.8084 169.887 28.1132C170.192 28.418 170.605 28.5895 171.036 28.59H192.964C193.395 28.5895 193.808 28.418 194.113 28.1132C194.418 27.8084 194.589 27.3951 194.59 26.964V5.036C194.589 4.60492 194.418 4.19165 194.113 3.88683C193.808 3.58201 193.395 3.41053 192.964 3.41H171.036Z" fill="#78909C"/>
<path d="M506.427 24.4895C505.737 24.6708 504.498 25.1271 504.834 26.0611C505.475 27.0756 506.848 27.2235 507.933 27.4429C510.682 27.8281 513.539 27.4156 516.047 26.22C515.185 25.9492 514.378 25.4377 513.583 25.1251C511.268 25.5972 508.797 25.7958 506.493 25.1781C506.611 24.903 507.667 24.271 506.786 24.4631C506.666 24.4718 506.547 24.4806 506.427 24.4895ZM505.685 21.1291C504.995 21.4069 503.766 21.738 503.884 22.7007C504.311 23.6644 505.594 23.7526 506.496 23.9631C509.924 24.4609 513.44 24.0228 516.731 22.9965C516.004 22.7245 515.229 22.4679 514.691 21.8796C511.775 22.4577 508.694 22.7484 505.778 22.1312C505.368 21.9151 506.198 21.5112 506.244 21.2928C507.068 20.5879 505.957 21.1897 505.685 21.1291ZM517.283 7.00307C514.854 7.73613 512.222 8.74018 510.78 10.9401C509.754 12.541 510.499 14.5963 511.703 15.8713C512.538 16.6923 512.209 18.0394 511.354 18.71C510.459 19.4919 511.493 19.3548 512.012 18.9793C513.282 18.1954 514.7 16.7633 514.158 15.1296C513.731 13.8959 512.13 12.8736 512.695 11.4319C513.794 9.44894 516.084 8.57664 517.808 7.23044C518.471 6.78761 517.54 7.06324 517.283 7.00307ZM501.531 28.2238C502.591 27.5189 503.898 27.336 505.151 27.5087C504.564 27.0832 504.027 26.6019 503.253 26.7096C501.798 26.8515 500.24 27.232 499.178 28.2988C498.652 28.918 499.398 29.6253 500.03 29.6983C505.412 30.7114 511.02 30.8601 516.426 29.9146C517.837 29.5473 519.524 29.3856 520.545 28.2459C521.021 27.4387 519.901 26.8476 519.245 26.7966C518.974 26.8644 519.726 27.345 519.706 27.6985C519.045 28.4281 517.875 28.4077 516.951 28.6388C510.094 29.5312 503.32 29.1747 501.531 28.2238ZM516.219 19.7436C516.742 19.4609 517.296 19.2389 517.729 18.8165C516.032 18.715 514.372 19.2734 512.684 19.3331C509.941 19.5014 507.132 19.8147 504.414 19.2933C503.994 19.1961 504.756 18.9769 504.864 18.8916C505.842 18.4571 506.922 18.3601 507.862 17.8321C507.472 17.7434 507.094 17.5785 506.688 17.629C504.926 17.7272 503.112 18.1601 501.642 19.1432C501.121 19.6356 501.769 20.2743 502.308 20.3396C506.047 21.3748 514.531 20.8542 516.219 19.7436ZM519.036 17.3377C518.144 17.334 517.287 17.7606 516.925 18.6173C516.507 19.1839 517.625 18.3578 517.998 18.3663C519.189 17.8722 520.631 19.1676 520.064 20.3883C519.479 21.8714 517.892 22.5832 516.7 23.4344C515.709 24.2464 516.026 24.2841 517.083 23.8997C518.999 23.3395 521.294 22.4426 521.923 20.3573C522.376 18.6407 520.707 17.1784 519.036 17.3377ZM513.045 0C513.121 0.353174 513.198 0.706604 513.274 1.05978C514.604 6.33333 507.979 7.54167 506.396 11.2801C505.745 13.1908 507.254 14.9344 508.462 16.2389C509.293 17.0812 510.137 17.9363 511.107 18.6348C510.664 16.3927 508.167 14.9479 508.392 12.5377C508.837 10.2228 511.264 9.20679 512.656 7.53589C514.969 4.96875 515.482 2.28432 513.045 0ZM502.387 30.4484C503.771 31.7891 505.835 31.6986 507.614 31.9097C511.677 32.0851 515.849 32.122 519.755 30.8987C520.869 30.5364 522.292 29.6598 521.98 28.2724C522.073 27.4421 521.653 28.5347 521.476 28.6781C519.063 31.0703 508.313 31.3987 502.387 30.4484Z" fill="#78909C"/>
<path fill-rule="evenodd" clip-rule="evenodd" d="M419 3V29.112H445.112V3H419ZM438.841 15.6829V15.6833C439.092 15.684 439.376 15.6969 439.59 15.7201C440.462 15.8144 441.141 16.1905 441.718 16.8988C442.006 17.2516 442.104 17.406 442.083 17.472C442.07 17.5146 441.872 17.6559 441.245 18.0724C440.629 18.4815 440.43 18.604 440.384 18.604C440.337 18.604 440.24 18.5038 440.1 18.3114C439.829 17.9409 439.553 17.7718 439.127 17.7154C438.668 17.6546 438.256 17.7992 438.054 18.0923C437.882 18.3426 437.856 18.7454 437.993 19.0381C438.152 19.3772 438.439 19.5646 439.54 20.0473C440.809 20.6039 441.452 20.9849 441.921 21.4578C442.426 21.967 442.681 22.5549 442.76 23.3865C442.798 23.7918 442.751 24.2723 442.635 24.6629C442.351 25.6204 441.583 26.3215 440.458 26.6515C440.147 26.7427 439.858 26.7971 439.571 26.8181C439.134 26.8503 438.509 26.8326 438.132 26.7777C437.18 26.639 436.104 26.0847 435.568 25.4561C435.305 25.1476 434.969 24.6399 434.969 24.5505C434.969 24.5074 434.99 24.483 435.075 24.4292C435.326 24.2697 436.764 23.4475 436.792 23.4475C436.809 23.4475 436.884 23.5361 436.959 23.6443C437.128 23.8893 437.546 24.3103 437.758 24.4508C437.931 24.5655 438.153 24.6577 438.416 24.7242C438.566 24.7617 438.646 24.7684 438.975 24.7684C439.311 24.7683 439.379 24.7627 439.53 24.7223C439.927 24.6153 440.237 24.394 440.369 24.1237C440.426 24.0069 440.428 23.9923 440.428 23.7089V23.4152L440.357 23.2751C440.186 22.9354 439.817 22.7024 438.652 22.1976C438.116 21.9656 437.461 21.6386 437.205 21.476C436.62 21.1047 436.215 20.6802 435.95 20.1607C435.685 19.644 435.646 19.4517 435.645 18.6748C435.645 18.0666 435.644 18.0741 435.77 17.6859C435.884 17.3337 436.118 16.9402 436.376 16.6658C436.891 16.1181 437.644 15.7661 438.45 15.6961C438.553 15.6864 438.691 15.6825 438.841 15.683L438.841 15.6829ZM431.906 15.803H431.906C433.459 15.8038 434.348 15.8092 434.363 15.8181C434.39 15.8348 434.393 15.9699 434.393 16.832V17.8266L432.844 17.8323L431.295 17.8379V22.2355C431.295 24.6543 431.29 26.6476 431.284 26.6652C431.273 26.6948 431.154 26.697 430.146 26.697H429.02L429.009 26.6515C429.001 26.6266 428.996 24.6332 428.995 22.2219L428.995 17.8376L427.446 17.8321L425.897 17.8265V16.8437C425.897 16.0642 425.903 15.8554 425.923 15.8347C425.945 15.8127 426.735 15.807 430.141 15.8037C430.798 15.803 431.389 15.8027 431.906 15.803Z" fill="#78909C"/>
<path d="M267.794 16.1283C267.794 13.9381 265.422 12.5618 263.535 13.6569C261.648 14.752 261.648 17.5046 263.535 18.5998C265.422 19.6949 267.794 18.3185 267.794 16.1283ZM274.295 10.8677C276.173 1.88704 272.04 -0.931153 265.013 5.56948C258.4 -0.630546 253.69 1.3234 255.694 10.8301C246.453 13.6161 247.065 18.8605 255.77 21.5393C253.778 30.2944 257.498 33.4884 265.013 26.875C272.303 33.4132 276.172 30.352 274.182 21.5017C283.676 18.2827 282.824 13.6233 274.295 10.8677ZM273.017 10.5295C271.528 10.1935 270.086 9.94899 268.621 9.81556C267.848 8.68634 266.949 7.55835 265.915 6.50888C271.549 1.10511 274.869 2.79358 273.017 10.5295ZM258.475 17.8568C259.032 19.0467 259.765 20.1364 260.316 21.0508C259.419 20.959 258.452 20.8196 257.423 20.6374C257.753 19.7144 258.104 18.7874 258.475 17.8568ZM258.4 14.6253C257.99 13.6412 257.616 12.6914 257.31 11.8071C258.373 11.5869 259.414 11.3869 260.316 11.3186C259.645 12.3739 259.007 13.4771 258.4 14.6253ZM259.189 16.2786C260.108 14.4384 261.08 12.6916 262.158 11.1307C264.07 11.0208 265.961 11.0305 267.831 11.1683C268.88 12.6297 269.859 14.3764 270.8 16.2786C270.096 17.7334 269.096 19.4101 267.944 21.2011C266.021 21.3467 264.048 21.3266 262.045 21.2011C261.029 19.6454 260.076 18.0069 259.189 16.2786ZM271.514 17.8568C271.879 18.7422 272.216 19.6446 272.528 20.5623C271.564 20.7654 270.613 20.9133 269.673 21.0132C270.316 20.0163 270.926 18.9579 271.514 17.8568ZM269.673 11.3186C270.697 11.4589 271.687 11.634 272.641 11.8447C272.322 12.7933 271.959 13.7204 271.552 14.6253C270.97 13.4781 270.345 12.3741 269.673 11.3186ZM266.779 9.66526C265.609 9.61935 264.419 9.62082 263.21 9.66526C263.739 8.96922 264.329 8.24215 264.976 7.48586C265.606 8.16642 266.204 8.89893 266.779 9.66526ZM264.074 6.50888C263.04 7.55835 262.141 8.64877 261.368 9.77799C259.903 9.91141 258.424 10.156 256.934 10.4919C255.168 2.63856 258.44 1.10511 264.074 6.50888ZM256.108 20.2992C248.279 17.9445 248.655 14.2746 256.033 12.1077C256.484 13.4771 257.03 14.8679 257.648 16.2035C257.048 17.5847 256.516 19.0033 256.108 20.2992ZM257.085 21.8774C258.412 22.2031 259.819 22.3594 261.293 22.5162C262.18 23.7677 263.098 24.9313 264.074 25.9356C258.337 31.4342 255.139 29.4365 257.085 21.8774ZM264.976 24.9962C264.296 24.2923 263.661 23.4947 263.059 22.629C264.401 22.6572 265.697 22.6604 266.93 22.629C266.333 23.476 265.681 24.2643 264.976 24.9962ZM265.915 25.9356C266.962 24.7984 267.884 23.6456 268.696 22.4787C270.08 22.3768 271.483 22.164 272.904 21.8399C274.867 29.8857 271.303 31.0738 265.915 25.9356ZM273.844 20.2241C273.441 18.9282 272.933 17.5847 272.341 16.2035C272.95 14.8679 273.474 13.5147 273.919 12.1453C281.121 14.3247 281.697 17.8067 273.844 20.2241Z" fill="#78909C"/>
<path d="M602.293 19.8019V12.2005C602.554 12.1382 602.809 12.0387 603.053 11.8987C604.418 11.1061 604.883 9.36559 604.099 8.001C603.306 6.6364 601.566 6.17064 600.201 6.95508C599.956 7.09766 599.74 7.2713 599.555 7.46753L592.973 3.66766C593.386 2.29146 592.706 0.800249 591.352 0.22699C589.9 -0.387834 588.229 0.289057 587.614 1.74132C587.346 2.37597 587.324 3.05234 587.505 3.66409L580.924 7.46402C580.041 6.53332 578.606 6.28281 577.443 6.94658C576.076 7.72696 575.593 9.471 576.374 10.8379C576.78 11.5499 577.448 12.0212 578.188 12.1999V19.8032C576.867 20.1255 575.928 21.3521 576.014 22.7536C576.111 24.3247 577.463 25.5152 579.041 25.4224C579.788 25.3732 580.447 25.0432 580.925 24.5427L587.505 28.342C587.119 29.6444 587.709 31.0718 588.967 31.6998C590.378 32.4041 592.092 31.8255 592.792 30.4217C593.143 29.718 593.177 28.94 592.948 28.2495L599.49 24.4724C600.018 25.0655 600.787 25.4374 601.642 25.4293C603.216 25.4143 604.488 24.1269 604.473 22.553C604.466 21.2141 603.541 20.1013 602.293 19.8019ZM581.633 21.9003C581.501 21.3588 581.218 20.8816 580.832 20.513L589.447 5.59178C589.981 5.74737 590.531 5.73968 591.037 5.59216L599.651 20.5119C599.262 20.8829 598.977 21.3618 598.846 21.9003H581.633ZM599.155 10.8528C599.557 11.5511 600.211 12.0133 600.937 12.1937V19.8062C600.9 19.8153 600.863 19.8251 600.827 19.8356L592.212 4.91467C592.238 4.88989 592.263 4.8643 592.288 4.83847L598.885 8.64706C598.681 9.36304 598.755 10.1567 599.155 10.8528ZM588.271 4.91622L579.657 19.8346C579.62 19.8237 579.582 19.8134 579.544 19.8041V12.196C579.791 12.1344 580.033 12.0393 580.265 11.9072C581.431 11.2417 581.95 9.88069 581.596 8.64226L588.189 4.83566C588.216 4.86311 588.243 4.88977 588.271 4.91622ZM592.349 27.2273C592.119 26.9745 591.839 26.7587 591.514 26.5966C590.369 26.0251 589.028 26.2936 588.186 27.1688L581.602 23.3676C581.613 23.3309 581.623 23.294 581.632 23.2567H598.849C598.865 23.3199 598.882 23.3826 598.902 23.444L592.349 27.2273Z" fill="#78909C"/>
<defs>
<clipPath id="clip0_84_132">
<rect width="32" height="32" fill="white" transform="translate(200 70)"/>
</clipPath>
<clipPath id="clip1_84_132">
<rect width="32" height="32" fill="white" transform="translate(370 70)"/>
</clipPath>
<clipPath id="clip2_84_132">
<rect width="32" height="32" fill="white" transform="translate(334)"/>
</clipPath>
</defs>
</svg>
